<?xml version="1.0" encoding="utf-8"?>
<!-- Generator: Adobe Illustrator 17.0.0, SVG Export Plug-In . SVG Version: 6.00 Build 0)  -->
<!DOCTYPE svg PUBLIC "-//W3C//DTD SVG 1.1//EN" "http://www.w3.org/Graphics/SVG/1.1/DTD/svg11.dtd">
<svg version="1.1" id="Layer_1" xmlns="http://www.w3.org/2000/svg" xmlns:xlink="http://www.w3.org/1999/xlink" x="0px" y="0px"
	 width="61.864px" height="40px" viewBox="225.068 236 61.864 40" enable-background="new 225.068 236 61.864 40"
	 xml:space="preserve">
<g>
	<path fill="#003366" d="M250.56,258.973v-3.627c-5.575,0.002-25.492,0.002-25.492,0.002c0.511,12.501,6.158,19.663,6.41,19.976
		l0.544,0.676h49.351l5.559-10.48v-6.547H250.56z M240.884,269.299h-3.628v-3.625h3.628V269.299z M249.349,269.299h-3.628v-3.625
		h3.628V269.299z M257.814,269.299h-3.628v-3.625h3.628V269.299z M266.278,269.299h-3.628v-3.625h3.628V269.299z M274.743,269.299
		h-3.628v-3.625h3.628V269.299z"/>
	<path fill="#003366" d="M246.883,236h21.861v7.861h-21.861V236z"/>
	<path fill="#003366" d="M254.185,251.719v3.629h29.119v-7.862h-40v4.234L254.185,251.719z"/>
</g>
</svg>
