<?xml version="1.0" encoding="utf-8"?>
<!-- Generator: Adobe Illustrator 17.0.0, SVG Export Plug-In . SVG Version: 6.00 Build 0)  -->
<!DOCTYPE svg PUBLIC "-//W3C//DTD SVG 1.1//EN" "http://www.w3.org/Graphics/SVG/1.1/DTD/svg11.dtd">
<svg version="1.1" id="Layer_1" xmlns="http://www.w3.org/2000/svg" xmlns:xlink="http://www.w3.org/1999/xlink" x="0px" y="0px"
	 width="559.722px" height="531.167px" viewBox="0 0 559.722 531.167" enable-background="new 0 0 559.722 531.167"
	 xml:space="preserve">
<g>
	<g>
		<path fill="#ff9e2a" d="M136.893,117.484c57.352,0,104.011,46.659,104.011,104.011s-46.659,104.011-104.011,104.011
			S32.881,278.847,32.881,221.495S79.541,117.484,136.893,117.484 M136.893,89.484c-72.908,0-132.011,59.103-132.011,132.011
			s59.103,132.011,132.011,132.011s132.011-59.103,132.011-132.011S209.8,89.484,136.893,89.484L136.893,89.484z"/>
	</g>
	<g>
		<path fill="#ff9e2a" d="M334.398,29.307c33.323,0,60.432,27.11,60.432,60.432s-27.11,60.432-60.432,60.432
			c-33.323,0-60.432-27.11-60.432-60.432S301.076,29.307,334.398,29.307 M334.398,1.307c-48.84,0-88.432,39.593-88.432,88.432
			c0,48.84,39.593,88.432,88.432,88.432c48.84,0,88.432-39.593,88.432-88.432C422.831,40.9,383.238,1.307,334.398,1.307
			L334.398,1.307z"/>
	</g>
	<g>
		<path fill="#ff9e2a" d="M334.398,380.995c33.323,0,60.432,27.11,60.432,60.432s-27.11,60.432-60.432,60.432
			c-33.323,0-60.432-27.11-60.432-60.432S301.076,380.995,334.398,380.995 M334.398,352.995c-48.84,0-88.432,39.593-88.432,88.432
			c0,48.84,39.593,88.432,88.432,88.432c48.84,0,88.432-39.593,88.432-88.432C422.831,392.587,383.238,352.995,334.398,352.995
			L334.398,352.995z"/>
	</g>
	<g>
		<path fill="#ff9e2a" d="M510.497,425.338c9.012,0,16.344,7.332,16.344,16.344s-7.332,16.344-16.344,16.344
			c-9.012,0-16.344-7.332-16.344-16.344S501.484,425.338,510.497,425.338 M510.497,397.338c-24.491,0-44.344,19.853-44.344,44.344
			c0,24.49,19.854,44.344,44.344,44.344c24.491,0,44.344-19.854,44.344-44.344C554.841,417.191,534.987,397.338,510.497,397.338
			L510.497,397.338z"/>
	</g>
	<g>
		<path fill="#ff9e2a" d="M137.02,404.185c21.027,0,38.133,17.107,38.133,38.133s-17.107,38.133-38.133,38.133
			s-38.133-17.107-38.133-38.133S115.993,404.185,137.02,404.185 M137.02,376.185c-36.524,0-66.133,29.609-66.133,66.133
			s29.609,66.133,66.133,66.133s66.133-29.609,66.133-66.133S173.544,376.185,137.02,376.185L137.02,376.185z"/>
	</g>
	<g>
		<path fill="#ff9e2a" d="M335.035,259.156c3.614,0,6.555,2.94,6.555,6.555s-2.94,6.555-6.555,6.555
			c-3.614,0-6.555-2.94-6.555-6.555S331.421,259.156,335.035,259.156 M335.035,243.156c-12.457,0-22.555,10.098-22.555,22.555
			s10.098,22.555,22.555,22.555s22.555-10.098,22.555-22.555S347.492,243.156,335.035,243.156L335.035,243.156z"/>
	</g>
	<g>
		<path fill="#ff9e2a" d="M467.683,227.577c21.378,0,38.771,17.392,38.771,38.771s-17.392,38.771-38.771,38.771
			s-38.771-17.392-38.771-38.771S446.304,227.577,467.683,227.577 M467.683,199.577c-36.876,0-66.771,29.894-66.771,66.771
			c0,36.876,29.894,66.771,66.771,66.771s66.77-29.894,66.77-66.771C534.453,229.472,504.559,199.577,467.683,199.577
			L467.683,199.577z"/>
	</g>
</g>
</svg>
