<?xml version="1.0" encoding="utf-8"?>
<!-- Generator: Adobe Illustrator 17.0.0, SVG Export Plug-In . SVG Version: 6.00 Build 0)  -->
<!DOCTYPE svg PUBLIC "-//W3C//DTD SVG 1.1//EN" "http://www.w3.org/Graphics/SVG/1.1/DTD/svg11.dtd">
<svg version="1.1"
	 id="Layer_1" xmlns:inkscape="http://www.inkscape.org/namespaces/inkscape" xmlns:cc="http://creativecommons.org/ns#" xmlns:rdf="http://www.w3.org/1999/02/22-rdf-syntax-ns#" xmlns:sodipodi="http://sodipodi.sourceforge.net/DTD/sodipodi-0.dtd" xmlns:svg="http://www.w3.org/2000/svg" xmlns:dc="http://purl.org/dc/elements/1.1/"
	 xmlns="http://www.w3.org/2000/svg" xmlns:xlink="http://www.w3.org/1999/xlink" x="0px" y="0px" width="45px" height="45px"
	 viewBox="937.5 517.5 45 45" enable-background="new 937.5 517.5 45 45" xml:space="preserve">
<g transform="translate(0,-952.36218)">
	<path fill="#ff9e2a" d="M960,1476.169c3.348,0,6.701,1.27,9.255,3.82c2.168,2.164,3.417,4.9,3.745,7.721c5.331,0.483,9.5,4.951,9.5,10.398
		c0,5.77-4.685,10.447-10.465,10.447h-25.64c-4.928,0-8.895-3.96-8.895-8.88c0-4.919,3.967-8.88,8.895-8.88h0.621
		c-0.461-3.842,0.791-7.858,3.745-10.806C953.315,1477.439,956.652,1476.169,960,1476.169z M960,1487.139
		c-0.578,0-1.047,0.468-1.047,1.045v11.231l-4.006-3.64c-0.406-0.37-1.099-0.323-1.488,0.065c-0.403,0.403-0.328,1.119,0.082,1.485
		l5.756,5.224c0.23,0.21,0.425,0.262,0.703,0.261c0.28-0.005,0.554-0.124,0.703-0.261l5.756-5.224
		c0.43-0.374,0.451-1.078,0.082-1.485c-0.369-0.407-1.082-0.436-1.488-0.065l-4.006,3.64v-11.231
		C961.047,1487.606,960.578,1487.139,960,1487.139z"/>
</g>
</svg>
