<?xml version="1.0" encoding="utf-8"?>
<!-- Generator: Adobe Illustrator 17.0.0, SVG Export Plug-In . SVG Version: 6.00 Build 0)  -->
<!DOCTYPE svg PUBLIC "-//W3C//DTD SVG 1.1//EN" "http://www.w3.org/Graphics/SVG/1.1/DTD/svg11.dtd">
<svg version="1.1" id="Capa_1" xmlns="http://www.w3.org/2000/svg" xmlns:xlink="http://www.w3.org/1999/xlink" x="0px" y="0px"
	 width="45px" height="45px" viewBox="937.5 517.5 45 45" enable-background="new 937.5 517.5 45 45" xml:space="preserve">
<g>
	<g>
		<path fill="#ff9e2a" d="M976.867,527.35v-5.622h-39.355v30.922c0,0,0,5.622,5.622,5.622h35.139c0,0,4.217-0.087,4.217-5.622v-25.3
			H976.867z M943.133,555.461c-2.811,0-2.811-2.811-2.811-2.811v-28.111h33.733v28.111c0,1.294,0.399,2.191,0.95,2.811H943.133z"/>
		<rect x="943.133" y="530.161" fill="#ff9e2a" width="28.111" height="2.811"/>
		<rect x="958.594" y="547.028" fill="#ff9e2a" width="9.839" height="2.811"/>
		<rect x="958.594" y="541.406" fill="#ff9e2a" width="12.65" height="2.811"/>
		<rect x="958.594" y="535.783" fill="#ff9e2a" width="12.65" height="2.811"/>
		<rect x="943.133" y="535.783" fill="#ff9e2a" width="12.65" height="14.056"/>
	</g>
</g>
</svg>
