<?xml version="1.0" encoding="utf-8"?>
<!-- Generator: Adobe Illustrator 17.0.0, SVG Export Plug-In . SVG Version: 6.00 Build 0)  -->
<!DOCTYPE svg PUBLIC "-//W3C//DTD SVG 1.1//EN" "http://www.w3.org/Graphics/SVG/1.1/DTD/svg11.dtd">
<svg version="1.1" id="Layer_1" xmlns="http://www.w3.org/2000/svg" xmlns:xlink="http://www.w3.org/1999/xlink" x="0px" y="0px"
	 width="40px" height="31.031px" viewBox="0 0 40 31.031" enable-background="new 0 0 40 31.031" xml:space="preserve">
<g>
	<g id="Settings">
		<g>
			<path fill="#F99D2E" d="M22.414,14.069c0.078-0.317-0.192-0.677-0.499-0.79c-0.992-0.366-1.657-1.274-1.694-2.311
				c-0.037-1.062,0.604-2.048,1.593-2.453c0.311-0.127,0.471-0.473,0.367-0.792c-0.27-0.832-0.632-1.628-1.076-2.365
				c-0.174-0.289-0.546-0.395-0.847-0.237c-0.909,0.476-2.166,0.314-2.924-0.39c-0.787-0.736-1.026-1.897-0.595-2.89
				c0.136-0.311,0.006-0.674-0.298-0.828c-0.774-0.392-1.589-0.696-2.433-0.905c-0.327-0.081-0.659,0.103-0.765,0.422
				c-0.335,1.017-1.272,1.725-2.335,1.763C9.892,2.327,8.838,1.639,8.456,0.693c-0.127-0.312-0.472-0.472-0.792-0.37
				c-0.837,0.27-1.642,0.635-2.39,1.085C4.982,1.582,4.879,1.953,5.035,2.254c0.502,0.96,0.344,2.136-0.392,2.924
				C3.941,5.93,2.806,6.163,1.748,5.772C1.409,5.635,1.079,5.775,0.927,6.073c-0.395,0.778-0.702,1.606-0.913,2.46
				c-0.079,0.318,0.203,0.68,0.513,0.794c0.952,0.324,1.641,1.241,1.68,2.305c0.038,1.062-0.602,2.048-1.593,2.453
				c-0.31,0.127-0.471,0.472-0.367,0.791c0.267,0.826,0.629,1.622,1.073,2.365c0.174,0.291,0.546,0.396,0.848,0.239
				c0.912-0.477,2.169-0.315,2.923,0.389c0.79,0.736,1.029,1.897,0.597,2.89c-0.136,0.312-0.005,0.675,0.298,0.828
				c0.396,0.201,0.803,0.379,1.22,0.533c0.396,0.146,0.8,0.271,1.213,0.373c0.327,0.081,0.659-0.103,0.765-0.422
				c0.334-1.017,1.272-1.725,2.333-1.762c1.025-0.035,2.073,0.654,2.456,1.599c0.128,0.312,0.471,0.47,0.792,0.37
				c0.835-0.269,1.639-0.634,2.39-1.085c0.291-0.174,0.396-0.546,0.239-0.847c-0.502-0.96-0.345-2.136,0.39-2.924
				c0.692-0.742,1.799-1.003,2.756-0.65l0.133,0.053c0.301,0.14,0.675,0.006,0.829-0.297C21.897,15.75,22.204,14.923,22.414,14.069z
				 M9.89,14.941c-1.991-0.735-3.013-2.952-2.278-4.943c0.735-1.991,2.952-3.013,4.943-2.278c1.991,0.735,3.013,2.952,2.278,4.943
				C14.098,14.654,11.881,15.676,9.89,14.941z"/>
		</g>
	</g>
	<g id="Settings_1_">
		<g>
			<path fill="#F99D2E" d="M31.028,23.13c-0.021-0.199-0.252-0.351-0.453-0.352c-0.649-0.005-1.222-0.391-1.459-0.982
				c-0.242-0.606-0.077-1.308,0.41-1.748c0.153-0.138,0.174-0.371,0.047-0.534c-0.329-0.425-0.703-0.809-1.113-1.142
				c-0.16-0.131-0.397-0.115-0.539,0.039c-0.426,0.464-1.186,0.632-1.77,0.383c-0.608-0.261-0.987-0.882-0.944-1.545
				c0.014-0.208-0.137-0.391-0.344-0.416c-0.529-0.065-1.062-0.072-1.593-0.017c-0.206,0.021-0.359,0.197-0.354,0.402
				c0.018,0.657-0.376,1.261-0.982,1.503c-0.581,0.232-1.332,0.053-1.75-0.413c-0.138-0.154-0.371-0.174-0.534-0.049
				c-0.427,0.33-0.816,0.708-1.155,1.124c-0.132,0.162-0.115,0.397,0.038,0.539c0.489,0.45,0.643,1.162,0.382,1.77
				c-0.249,0.58-0.857,0.951-1.549,0.945c-0.225-0.009-0.386,0.14-0.412,0.344c-0.067,0.532-0.072,1.074-0.016,1.611
				c0.021,0.2,0.259,0.35,0.462,0.352c0.617-0.011,1.206,0.376,1.449,0.982c0.243,0.606,0.078,1.308-0.41,1.748
				c-0.153,0.138-0.174,0.37-0.047,0.533c0.326,0.422,0.7,0.806,1.111,1.143c0.161,0.132,0.397,0.116,0.539-0.038
				c0.428-0.465,1.187-0.633,1.769-0.383c0.609,0.261,0.989,0.882,0.946,1.545c-0.014,0.208,0.138,0.391,0.344,0.417
				c0.27,0.034,0.543,0.052,0.816,0.054c0.259,0.002,0.518-0.01,0.778-0.037c0.206-0.021,0.359-0.197,0.354-0.403
				c-0.018-0.657,0.376-1.261,0.981-1.503c0.585-0.233,1.333-0.053,1.751,0.413c0.139,0.153,0.37,0.174,0.534,0.049
				c0.426-0.329,0.815-0.707,1.155-1.124c0.132-0.161,0.115-0.397-0.038-0.539c-0.489-0.45-0.644-1.162-0.383-1.77
				c0.245-0.572,0.831-0.953,1.457-0.948l0.088,0.003c0.203,0.018,0.391-0.137,0.417-0.344
				C31.079,24.209,31.084,23.667,31.028,23.13z M23.976,26.237c-1.303-0.01-2.354-1.079-2.343-2.381
				c0.01-1.303,1.079-2.354,2.381-2.343c1.303,0.01,2.354,1.079,2.343,2.381C26.347,25.197,25.279,26.248,23.976,26.237z"/>
		</g>
	</g>
	<g id="Settings_2_">
		<g>
			<path fill="#F99D2E" d="M40,18.496c0-0.146-0.156-0.274-0.301-0.29c-0.47-0.054-0.856-0.378-0.983-0.825
				c-0.129-0.458,0.045-0.955,0.432-1.237c0.122-0.088,0.155-0.256,0.075-0.384c-0.206-0.333-0.448-0.641-0.72-0.914
				c-0.106-0.107-0.279-0.114-0.394-0.013c-0.345,0.304-0.909,0.367-1.313,0.141c-0.421-0.236-0.648-0.716-0.566-1.194
				c0.026-0.15-0.069-0.294-0.218-0.329c-0.378-0.088-0.765-0.134-1.155-0.135c-0.151-0.001-0.276,0.115-0.288,0.265
				c-0.038,0.478-0.37,0.886-0.828,1.015c-0.439,0.124-0.971-0.064-1.238-0.434c-0.088-0.122-0.256-0.155-0.384-0.077
				c-0.335,0.206-0.647,0.451-0.924,0.726c-0.108,0.107-0.114,0.28-0.014,0.394c0.32,0.364,0.377,0.892,0.141,1.314
				c-0.225,0.402-0.695,0.624-1.196,0.566c-0.162-0.024-0.291,0.072-0.325,0.218c-0.089,0.381-0.135,0.774-0.136,1.167
				c0,0.147,0.161,0.274,0.308,0.291c0.448,0.04,0.846,0.365,0.976,0.824c0.13,0.458-0.044,0.955-0.432,1.237
				c-0.121,0.088-0.155,0.255-0.075,0.383c0.204,0.331,0.446,0.639,0.718,0.914c0.107,0.108,0.279,0.114,0.394,0.014
				c0.346-0.305,0.91-0.368,1.313-0.142c0.422,0.236,0.65,0.716,0.567,1.194c-0.026,0.15,0.07,0.294,0.218,0.329
				c0.194,0.045,0.39,0.079,0.588,0.102c0.188,0.021,0.377,0.033,0.567,0.033c0.151,0.001,0.276-0.115,0.288-0.265
				c0.037-0.478,0.37-0.886,0.827-1.015c0.442-0.124,0.971,0.064,1.238,0.434c0.089,0.122,0.255,0.154,0.384,0.077
				c0.335-0.206,0.645-0.45,0.924-0.726c0.108-0.107,0.114-0.28,0.014-0.394c-0.32-0.364-0.378-0.892-0.141-1.314
				c0.222-0.396,0.676-0.628,1.13-0.576l0.063,0.009c0.146,0.029,0.294-0.069,0.329-0.217C39.954,19.283,39.999,18.89,40,18.496z
				 M34.644,20.208C33.7,20.1,33.02,19.244,33.127,18.3c0.108-0.944,0.964-1.625,1.908-1.517c0.944,0.108,1.625,0.964,1.517,1.908
				C36.445,19.635,35.589,20.316,34.644,20.208z"/>
		</g>
	</g>
</g>
</svg>
