<?xml version="1.0" encoding="utf-8"?>
<!-- Generator: Adobe Illustrator 17.0.0, SVG Export Plug-In . SVG Version: 6.00 Build 0)  -->
<!DOCTYPE svg PUBLIC "-//W3C//DTD SVG 1.1//EN" "http://www.w3.org/Graphics/SVG/1.1/DTD/svg11.dtd">
<svg version="1.1"
	 id="Layer_1" xmlns:dc="http://purl.org/dc/elements/1.1/" xmlns:cc="http://creativecommons.org/ns#" xmlns:rdf="http://www.w3.org/1999/02/22-rdf-syntax-ns#" xmlns:svg="http://www.w3.org/2000/svg" xmlns:sodipodi="http://sodipodi.sourceforge.net/DTD/sodipodi-0.dtd" xmlns:inkscape="http://www.inkscape.org/namespaces/inkscape"
	 xmlns="http://www.w3.org/2000/svg" xmlns:xlink="http://www.w3.org/1999/xlink" x="0px" y="0px" width="784px" height="768px"
	 viewBox="568.5 48.5 784 768" enable-background="new 568.5 48.5 784 768" xml:space="preserve">
<g transform="translate(0,-952.36218)">
	<path fill="#ff9e2a" d="M682.433,1004.721c-8.904,0.84-15.697,8.335-15.658,17.279v51.839h-69.112c-9.542,0.001-17.277,7.737-17.278,17.28v328.312
		c0.001,9.543,7.736,17.279,17.278,17.28h103.668c9.542-0.001,17.277-7.737,17.278-17.28c0-113.287,106.849-207.355,241.893-207.355
		s241.448,93.985,241.893,207.355c0.001,9.543,7.736,17.279,17.278,17.28h103.668c9.542-0.001,17.277-7.737,17.278-17.28v-328.312
		c-0.001-9.543-7.736-17.278-17.278-17.28h-69.112V1022c-0.001-9.543-7.736-17.278-17.278-17.279h-103.668
		c-9.542,0.001-17.277,7.737-17.278,17.279v51.839h-86.39V1022c-0.001-9.543-7.736-17.278-17.278-17.279H908.667
		c-9.542,0.001-17.277,7.737-17.278,17.279v51.839h-86.39V1022c-0.001-9.543-7.736-17.278-17.278-17.279H684.052
		C683.513,1004.695,682.972,1004.695,682.433,1004.721L682.433,1004.721z M701.331,1039.28h69.112v51.839
		c0.001,9.543,7.736,17.278,17.278,17.279h120.946c9.542-0.001,17.277-7.737,17.278-17.279v-51.839h69.112v51.839
		c0.001,9.543,7.736,17.278,17.278,17.279h120.946c9.542-0.001,17.277-7.737,17.278-17.279v-51.839h69.112v51.839
		c0.001,9.543,7.736,17.278,17.278,17.279h69.112v293.753h-71.272c-10.669-126.441-129.644-224.635-274.289-224.635
		c-144.586,0-264.224,98.198-274.559,224.635H614.94v-293.753h69.112c9.542-0.001,17.277-7.737,17.278-17.279L701.331,1039.28
		L701.331,1039.28z M863.852,1281.194c-5.493,0.518-10.408,3.628-13.229,8.37l-267.81,449.269
		c-4.92,8.178-2.279,18.797,5.899,23.717c2.702,1.625,5.797,2.481,8.95,2.473h725.678c9.543,0.023,17.298-7.695,17.321-17.24
		c0.008-3.152-0.848-6.248-2.473-8.95l-267.81-449.269c-3.134-5.207-8.772-8.385-14.848-8.37H865.472
		C864.932,1281.168,864.392,1281.168,863.852,1281.194z M875.191,1315.753h68.032v43.199c-0.135,9.543,7.492,17.389,17.034,17.524
		c9.542,0.134,17.387-7.493,17.522-17.036c0.002-0.162,0.002-0.325,0-0.488v-43.199h68.032l247.292,414.71H977.779v-60.478
		c0.206-9.542-7.362-17.445-16.903-17.65c-0.756-0.016-1.513,0.017-2.265,0.1c-8.902,0.979-15.581,8.596-15.388,17.55v60.478
		H627.899L875.191,1315.753L875.191,1315.753z M958.612,1445.079c-8.902,0.978-15.581,8.596-15.388,17.551v86.397
		c-0.135,9.543,7.492,17.389,17.034,17.524c9.542,0.135,17.387-7.493,17.522-17.036c0.002-0.162,0.002-0.325,0-0.488v-86.397
		c0.206-9.542-7.362-17.444-16.903-17.65C960.12,1444.963,959.364,1444.996,958.612,1445.079L958.612,1445.079z"/>
</g>
</svg>
