<?xml version="1.0" encoding="utf-8"?>
<!-- Generator: Adobe Illustrator 17.0.0, SVG Export Plug-In . SVG Version: 6.00 Build 0)  -->
<!DOCTYPE svg PUBLIC "-//W3C//DTD SVG 1.1//EN" "http://www.w3.org/Graphics/SVG/1.1/DTD/svg11.dtd">
<svg version="1.1" id="Layer_1" xmlns="http://www.w3.org/2000/svg" xmlns:xlink="http://www.w3.org/1999/xlink" x="0px" y="0px"
	 width="54.753px" height="40px" viewBox="932.623 520 54.753 40" enable-background="new 932.623 520 54.753 40"
	 xml:space="preserve">
<g>
	<path fill="#003366" d="M951.021,553.252c-4.985-1.52-9.544-4.377-13.192-8.146c-1.155-1.216-3.039-1.277-4.255-0.122
		s-1.277,3.039-0.122,4.255c4.316,4.559,9.787,7.903,15.745,9.787c0.304,0.061,0.608,0.122,0.912,0.122
		c1.277,0,2.492-0.851,2.918-2.128C953.514,555.441,952.663,553.739,951.021,553.252z"/>
	<path fill="#003366" d="M986.462,545.046c-1.216-1.155-3.1-1.094-4.255,0.122c-3.647,3.769-8.146,6.626-13.131,8.146
		c-1.581,0.486-2.492,2.188-2.006,3.769c0.426,1.277,1.581,2.128,2.918,2.128c0.304,0,0.608-0.061,0.912-0.122
		c5.957-1.824,11.429-5.228,15.745-9.726C987.678,548.085,987.617,546.201,986.462,545.046z"/>
	<path fill="#003366" d="M948.894,548.207c0.426,0.182,0.851,0.304,1.277,0.304c1.155,0,2.249-0.669,2.736-1.763
		c0.729-1.52,0.061-3.344-1.459-4.012c-2.371-1.094-4.499-2.614-6.322-4.498c-1.155-1.216-3.04-1.277-4.255-0.122
		c-1.216,1.155-1.277,3.04-0.122,4.255C943.058,544.863,945.793,546.809,948.894,548.207z"/>
	<path fill="#003366" d="M967.131,546.748c0.486,1.094,1.581,1.763,2.736,1.763c0.426,0,0.851-0.061,1.277-0.304
		c3.039-1.398,5.775-3.343,8.146-5.836c1.155-1.216,1.094-3.1-0.122-4.255c-1.216-1.155-3.1-1.094-4.255,0.122
		c-1.824,1.885-3.951,3.404-6.322,4.499C967.131,543.404,966.462,545.228,967.131,546.748z"/>
	<path fill="#003366" d="M972.055,535.502c1.155-1.216,1.094-3.1-0.122-4.255c-1.216-1.155-3.1-1.094-4.255,0.122
		c-2.006,2.128-4.742,3.283-7.66,3.283s-5.654-1.155-7.66-3.283c-1.155-1.216-3.039-1.277-4.255-0.122
		c-1.216,1.155-1.277,3.039-0.122,4.255c2.492,2.614,5.714,4.316,9.179,4.924v16.717c0,1.581,1.277,2.857,2.857,2.857
		s2.857-1.277,2.857-2.857v-16.717C966.401,539.818,969.562,538.115,972.055,535.502z"/>
	<circle fill="#003366" cx="960.018" cy="525.289" r="5.289"/>
</g>
</svg>
