<?xml version="1.0" encoding="UTF-8"?>
<svg width="111px" height="98px" viewBox="0 0 111 98" version="1.1" xmlns="http://www.w3.org/2000/svg" xmlns:xlink="http://www.w3.org/1999/xlink">
    <!-- Generator: Sketch 52.3 (67297) - http://www.bohemiancoding.com/sketch -->
    <title>noun_best employee_787419</title>
    <desc>Created with Sketch.</desc>
    <g id="Page-1" stroke="none" stroke-width="1" fill="none" fill-rule="evenodd">
        <g id="noun_best-employee_787419" fill="#003366" fill-rule="nonzero">
            <path d="M53.8116252,71.0826318 C53.8116252,54.0415118 67.3947175,40.1735659 84.0858054,40.1735659 C91.6831282,40.1735659 98.5897853,42.9941651 104,47.8126886 L104,21.3695715 C104,17.9613475 101.352448,15.2582733 98.0142305,15.2582733 L74.8769293,15.2582733 L74.8769293,11.6149993 C74.8769293,5.38617617 69.9271584,0.45012763 63.9413889,0.45012763 L39.998311,0.45012763 C33.8974306,0.45012763 29.0627707,5.50370114 29.0627707,11.6149993 L29.0627707,15.2582733 L6.15569135,15.2582733 C2.81747376,15.2582733 0.169921875,17.9613475 0.169921875,21.3695715 L0.169921875,87.8887018 C0.169921875,91.2969258 2.81747376,94 6.15569135,94 L63.711167,94 C57.6102866,88.3588017 53.8116252,80.1320541 53.8116252,71.0826318 Z M36.1111028,11.8701943 C36.1111028,9.50334109 38.0438828,7.49151587 40.3177416,7.49151587 L63.8521803,7.49151587 C66.1260391,7.49151587 68.0588191,9.50334109 68.0588191,11.8701943 L68.0588191,15.5388167 L36.1111028,15.5388167 L36.1111028,11.8701943 Z" id="Shape"></path>
            <path d="M85.999595,47 C72.2220404,47 61,58.4466667 61,72.5 C61,86.5533333 72.2220404,98 85.999595,98 C99.7771495,98 110.99919,86.5533333 110.99919,72.5 C111.110299,58.4466667 99.7771495,47 85.999595,47 Z M97.6660726,69.6666667 L92.5550443,74.7666667 L93.7772467,81.9066667 C93.888356,82.2466667 93.6661374,82.5866667 93.4439188,82.8133333 C93.2217002,83.04 92.9994815,83.1533333 92.7772629,83.1533333 C92.6661536,83.1533333 92.443935,83.1533333 92.3328257,83.04 L85.999595,79.64 L79.6663642,83.04 C79.3330363,83.2666667 78.9997084,83.1533333 78.6663804,82.9266667 C78.3330525,82.7 78.2219432,82.36 78.3330525,82.02 L79.5552549,74.88 L74.4442266,69.78 C74.222008,69.5533333 74.1108987,69.1 74.222008,68.76 C74.3331173,68.42 74.6664452,68.1933333 74.9997732,68.08 L82.1107691,67.06 L85.3329391,60.4866667 C85.666267,59.8066667 86.6662508,59.8066667 86.9995788,60.4866667 L90.2217488,67.06 L97.3327447,68.08 C97.6660726,68.08 97.9994005,68.42 98.1105099,68.76 C97.9994005,69.1 97.8882912,69.44 97.6660726,69.6666667 Z" id="Shape"></path>
        </g>
    </g>
</svg>