<?xml version="1.0" encoding="utf-8"?>
<!-- Generator: Adobe Illustrator 17.0.0, SVG Export Plug-In . SVG Version: 6.00 Build 0)  -->
<!DOCTYPE svg PUBLIC "-//W3C//DTD SVG 1.1//EN" "http://www.w3.org/Graphics/SVG/1.1/DTD/svg11.dtd">
<svg version="1.1" id="Layer_1" xmlns="http://www.w3.org/2000/svg" xmlns:xlink="http://www.w3.org/1999/xlink" x="0px" y="0px"
	 width="30px" height="30px" viewBox="945 525 30 30" enable-background="new 945 525 30 30" xml:space="preserve">
<g>
	<path fill="#003366" d="M968.834,537.214h-17.5c-1.538,0.001-2.784,1.248-2.783,2.786l0.002,12.217c0.001,1.538,1.248,2.784,2.786,2.783
		l17.326-0.009c1.538-0.001,2.784-1.248,2.783-2.786l-0.002-12.217C971.445,538.509,970.29,537.304,968.834,537.214z
		 M960.762,546.583l0.002,3.46l-1.261,0.001l-0.002-3.46c-0.693-0.257-1.19-0.918-1.191-1.701c-0.001-1.005,0.814-1.821,1.82-1.821
		c1.005-0.001,1.821,0.814,1.821,1.82C961.951,545.664,961.455,546.326,960.762,546.583z"/>
	<path fill="#003366" d="M953.799,535.969c0.597,0,1.082-0.485,1.081-1.082l-0.002-1.778c-0.001-2.822,2.294-5.12,5.116-5.121
		c2.822-0.001,5.12,2.294,5.121,5.116l0.002,1.785c0.001,0.597,0.484,1.08,1.081,1.08h0.825c0.598,0,1.082-0.485,1.081-1.082
		l-0.002-1.785c-0.003-4.47-3.641-8.105-8.111-8.103c-4.47,0.002-8.105,3.64-8.102,8.111l0.002,1.778
		c0.001,0.597,0.484,1.08,1.081,1.08L953.799,535.969L953.799,535.969z"/>
</g>
</svg>
