<?xml version="1.0" encoding="utf-8"?>
<!-- Generator: Adobe Illustrator 17.0.0, SVG Export Plug-In . SVG Version: 6.00 Build 0)  -->
<!DOCTYPE svg PUBLIC "-//W3C//DTD SVG 1.1//EN" "http://www.w3.org/Graphics/SVG/1.1/DTD/svg11.dtd">
<svg version="1.1" id="Layer_1" xmlns="http://www.w3.org/2000/svg" xmlns:xlink="http://www.w3.org/1999/xlink" x="0px" y="0px"
	 width="864px" height="864px" viewBox="528 108 864 864" enable-background="new 528 108 864 864" xml:space="preserve">
<title>l1</title>
<path fill="#003366" d="M960,108L960,108c-238.596,0-432,193.404-432,432l0,0c0,238.596,193.404,432,432,432l0,0
	c238.579,0,432-193.404,432-432l0,0C1392,301.404,1198.596,108,960,108z M926.25,320.422c0.091-18.583,15.23-33.574,33.814-33.483
	c9.195,0.045,17.97,3.851,24.287,10.533c5.836,5.723,9.136,13.545,9.163,21.718v14.934c0,75.195,0.152,152.904,0,229.382
	c0,17.466-15.441,32.181-33.615,32.181l0,0c-18.039,0-33.362-14.732-33.48-32.282c-0.186-28.688-0.152-57.729-0.101-85.911
	c0-12.049,0-24.098,0-36.146V432l0,0c0-8.438,0-16.875,0-25.161C926.25,378.658,926.149,349.059,926.25,320.422z M1004.111,788.839
	c-130.018,24.688-255.432-60.699-280.12-190.717c-0.117-0.614-0.231-1.228-0.343-1.843c-14.327-80.679,7.577-152.28,65.07-212.794
	c6.46-7.035,15.543-11.085,25.093-11.188c8.513,0.042,16.683,3.359,22.815,9.264c6.653,6.146,10.557,14.707,10.834,23.76
	c0.156,9.156-3.385,17.989-9.821,24.503c-26.561,27.591-42.913,59.94-48.617,96.187c-13.202,94.596,52.782,181.983,147.378,195.185
	c94.596,13.202,181.983-52.782,195.185-147.378c6.396-54.321-9.652-102.077-47.672-141.952
	c-10.564-11.087-13.719-22.326-9.922-35.353c5.198-17.764,23.812-27.952,41.577-22.754c5.394,1.578,10.305,4.488,14.28,8.461
	c41.276,41.732,64.699,92.374,69.609,150.525c0.388,4.556,0.658,9.247,0.911,13.804c0.124,2.081,0.247,4.162,0.371,6.244
	C1199.794,669.803,1119.03,766.851,1004.111,788.839z"/>
</svg>
