<?xml version="1.0" encoding="utf-8"?>
<!-- Generator: Adobe Illustrator 17.0.0, SVG Export Plug-In . SVG Version: 6.00 Build 0)  -->
<!DOCTYPE svg PUBLIC "-//W3C//DTD SVG 1.1//EN" "http://www.w3.org/Graphics/SVG/1.1/DTD/svg11.dtd">
<svg version="1.1" id="Layer_1" xmlns="http://www.w3.org/2000/svg" xmlns:xlink="http://www.w3.org/1999/xlink" x="0px" y="0px"
	 width="405.622px" height="175.004px" viewBox="757.189 452.498 405.622 175.004"
	 enable-background="new 757.189 452.498 405.622 175.004" xml:space="preserve">
<g>
	
		<rect x="1126.187" y="529.507" transform="matrix(-0.7072 0.707 -0.707 -0.7072 2308.6592 112.5872)" fill="#E07C00" width="9.66" height="9.66"/>
	<polygon fill="#003764" points="1135.585,518.435 1137.855,516.152 1133.289,511.598 1131.031,513.881 	"/>
	
		<rect x="1135.282" y="505.483" transform="matrix(-0.7075 0.7067 -0.7067 -0.7075 2305.0986 60.133)" fill="#003764" width="9.647" height="3.207"/>
	
		<rect x="1124.825" y="570.449" transform="matrix(-0.7068 0.7074 -0.7074 -0.7068 2329.5479 185.0346)" fill="#E07C00" width="3.207" height="9.647"/>
	<polygon fill="#6E7C7C" points="1135.585,545.721 1137.855,543.464 1135.572,541.18 1133.289,543.438 	"/>
	
		<rect x="1114.143" y="574.341" transform="matrix(-0.7065 0.7077 -0.7077 -0.7065 2315.4932 194.7852)" fill="#003764" width="6.427" height="6.363"/>
	<polygon fill="#003764" points="1158.291,504.786 1160.6,502.49 1156.059,497.949 1153.763,500.258 	"/>
	
		<rect x="1141.898" y="539.098" transform="matrix(-0.7079 0.7063 -0.7063 -0.7079 2335.9827 118.4986)" fill="#003764" width="3.181" height="6.35"/>
	<polygon fill="#003764" points="1140.126,500.271 1142.397,498 1137.843,493.433 1135.572,495.717 	"/>
	
		<rect x="1140.34" y="474.765" transform="matrix(-0.7081 0.7061 -0.7061 -0.7081 2289.6909 6.2507)" fill="#003764" width="6.427" height="3.246"/>
	<polygon fill="#003764" points="1142.397,534.343 1144.655,532.085 1140.113,527.544 1137.855,529.801 	"/>
	
		<rect x="1137.324" y="557.261" transform="matrix(-0.7079 0.7063 -0.7063 -0.7079 2341.0549 152.7896)" fill="#003764" width="3.22" height="6.414"/>
	
		<rect x="1156.696" y="519.114" transform="matrix(-0.7073 0.7069 -0.7069 -0.7073 2345.6709 70.2149)" fill="#003764" width="3.207" height="3.207"/>
	
		<rect x="1093.652" y="594.735" transform="matrix(-0.7074 0.7068 -0.7068 -0.7074 2295.4407 245.6639)" fill="#003764" width="6.44" height="6.427"/>
	
		<rect x="1083.47" y="595.243" transform="matrix(-0.7073 0.7069 -0.7069 -0.7073 2277.2278 250.8121)" fill="#003764" width="6.44" height="3.207"/>
	
		<rect x="1120.526" y="513.085" transform="matrix(-0.707 0.7072 -0.7072 -0.707 2288.4194 91.0162)" fill="#6E7C7C" width="9.66" height="12.931"/>
	<polygon fill="#E07C00" points="1128.747,511.637 1133.289,507.095 1131.044,504.825 1126.49,509.379 	"/>
	
		<rect x="1108.431" y="588.396" transform="matrix(-0.7065 0.7077 -0.7077 -0.7065 2314.5752 220.1202)" fill="#003764" width="6.427" height="3.207"/>
	
		<rect x="1090.962" y="454.999" transform="matrix(-0.7069 0.7073 -0.7073 -0.7069 2194.4893 7.0745)" fill="#003764" width="9.634" height="6.427"/>
	
		<rect x="1116.334" y="555.027" transform="matrix(-0.7071 0.7071 -0.7071 -0.7071 2319.603 155.6191)" fill="#E07C00" width="22.475" height="6.376"/>
	
		<rect x="1062.357" y="459.562" transform="matrix(-0.7075 0.7067 -0.7067 -0.7075 2143.7793 38.2537)" fill="#003764" width="3.233" height="6.401"/>
	
		<rect x="1144.341" y="546.347" transform="matrix(-0.7085 0.7057 -0.7057 -0.7085 2350.0344 125.2096)" fill="#003764" width="9.634" height="3.207"/>
	<polygon fill="#E07C00" points="1069.635,588.914 1071.905,586.618 1065.094,579.806 1062.81,582.089 	"/>
	<polygon fill="#003764" points="1115.073,593.417 1119.614,597.971 1126.438,591.146 1121.884,586.605 	"/>
	
		<rect x="1107.055" y="484.979" transform="matrix(-0.7073 0.7069 -0.7069 -0.7073 2247.7783 42.4634)" fill="#6E7C7C" width="16.087" height="3.194"/>
	
		<rect x="1106.689" y="560.038" transform="matrix(-0.7077 0.7065 -0.7065 -0.7077 2289.4463 176.1144)" fill="#6E7C7C" width="3.207" height="3.22"/>
	<polygon fill="#6E7C7C" points="1096.933,579.819 1099.191,577.548 1096.908,575.278 1094.65,577.535 	"/>
	
		<rect x="1117.553" y="538.436" transform="matrix(-0.7077 0.7065 -0.7065 -0.7077 2295.4939 130.369)" fill="#6E7C7C" width="6.453" height="3.181"/>
	
		<rect x="1118.054" y="522.728" transform="matrix(-0.7057 0.7085 -0.7085 -0.7057 2283.5747 106.5527)" fill="#6E7C7C" width="3.207" height="9.634"/>
	<polygon fill="#6E7C7C" points="1110.57,552.533 1115.124,547.979 1112.853,545.734 1108.299,550.275 	"/>
	
		<rect x="1109.163" y="509.593" transform="matrix(-0.7068 0.7074 -0.7074 -0.7068 2264.0959 87.2177)" fill="#6E7C7C" width="9.621" height="6.414"/>
	
		<rect x="1116.904" y="500.47" transform="matrix(-0.7067 0.7075 -0.7075 -0.7067 2265.3181 68.2768)" fill="#6E7C7C" width="3.207" height="6.414"/>
	<polygon fill="#6E7C7C" points="1071.918,582.089 1074.202,584.347 1078.743,579.806 1076.459,577.535 	"/>
	
		<rect x="1106.675" y="497.731" transform="matrix(-0.7067 0.7075 -0.7075 -0.7067 2247.0442 73.5443)" fill="#6E7C7C" width="3.207" height="9.583"/>
	
		<rect x="1119.839" y="488.829" transform="matrix(-0.7073 0.7069 -0.7069 -0.7073 2268.6399 54.3936)" fill="#E07C00" width="6.44" height="16.061"/>
	<polygon fill="#6E7C7C" points="1099.204,500.258 1103.732,495.729 1099.204,491.188 1094.663,495.717 	"/>
	
		<rect x="1100.53" y="483.397" transform="matrix(-0.7073 0.7069 -0.7069 -0.7073 2228.4211 50.5605)" fill="#E07C00" width="6.427" height="6.44"/>
	
		<rect x="1111.231" y="496.39" transform="matrix(-0.7057 0.7085 -0.7085 -0.7057 2250.9983 60.9814)" fill="#6E7C7C" width="3.207" height="3.207"/>
	<polygon fill="#6E7C7C" points="1117.369,536.729 1119.665,534.432 1117.369,532.136 1115.085,534.432 	"/>
	<polygon fill="#6E7C7C" points="1090.121,495.742 1092.418,493.459 1087.838,488.892 1085.542,491.175 	"/>
	
		<rect x="1110.948" y="551.587" transform="matrix(-0.7065 0.7077 -0.7077 -0.7065 2299.4749 156.0099)" fill="#6E7C7C" width="12.879" height="6.453"/>
	<polygon fill="#6E7C7C" points="1101.462,561.641 1094.65,568.453 1103.758,577.548 1110.557,570.749 	"/>
	
		<rect x="1085.757" y="472.899" transform="matrix(-0.7068 0.7074 -0.7074 -0.7068 2198.8899 50.5158)" fill="#6E7C7C" width="6.44" height="16.074"/>
	<polygon fill="#6E7C7C" points="1074.189,493.433 1083.284,484.338 1076.459,477.526 1067.377,486.621 	"/>
	
		<rect x="1145.983" y="510.686" transform="matrix(-0.7067 0.7075 -0.7075 -0.7067 2324.9341 63.9953)" fill="#003764" width="6.44" height="6.414"/>
	<polygon fill="#003764" points="1140.075,568.414 1135.521,572.956 1140.075,577.523 1144.629,572.956 	"/>
	<polygon fill="#E07C00" points="1081.026,582.089 1076.459,586.643 1081.013,591.198 1085.567,586.643 	"/>
	
		<rect x="1096.644" y="475.916" transform="matrix(-0.7065 0.7077 -0.7077 -0.7065 2217.5981 35.3897)" fill="#6E7C7C" width="9.634" height="3.22"/>
	
		<rect x="1102.295" y="580.056" transform="matrix(-0.7072 0.707 -0.707 -0.7072 2302.4387 212.9521)" fill="#E07C00" width="9.66" height="6.35"/>
	
		<rect x="1059.927" y="484.689" transform="matrix(-0.7077 0.7065 -0.7065 -0.7077 2157.605 83.156)" fill="#6E7C7C" width="3.348" height="6.414"/>
	
		<rect x="1130.571" y="468.593" transform="matrix(-0.7077 0.7065 -0.7065 -0.7077 2266.7607 5.829)" fill="#003764" width="3.207" height="6.44"/>
	
		<rect x="1135.717" y="592.934" transform="matrix(-0.7071 0.7071 -0.7071 -0.7071 2364.6665 209.5974)" fill="#003764" width="6.414" height="3.207"/>
	
		<rect x="1071.008" y="467.519" transform="matrix(-0.707 0.7072 -0.7072 -0.707 2166.5815 43.8458)" fill="#003764" width="6.401" height="6.414"/>
	<polygon fill="#E07C00" points="1087.825,470.714 1090.109,468.431 1085.567,463.89 1083.297,466.16 	"/>
	
		<rect x="1091.426" y="469.767" transform="matrix(-0.7066 0.7076 -0.7076 -0.7066 2202.8127 32.6125)" fill="#E07C00" width="6.44" height="6.427"/>
	<polygon fill="#003764" points="1117.407,459.31 1121.961,454.769 1119.678,452.498 1115.137,457.052 	"/>
	
		<rect x="1077.13" y="453.179" transform="matrix(-0.7083 0.7059 -0.7059 -0.7083 2163.8503 15.4453)" fill="#003764" width="3.207" height="3.233"/>
	
		<rect x="1108.471" y="479.324" transform="matrix(-0.7069 0.7073 -0.7073 -0.7069 2237.7197 34.603)" fill="#E07C00" width="6.44" height="3.22"/>
	<polygon fill="#E07C00" points="1130.98,568.414 1133.263,566.118 1130.992,563.86 1128.722,566.144 	"/>
	
		<rect x="1122.572" y="485.019" transform="matrix(-0.7071 0.7071 -0.7071 -0.7071 2263.2148 35.7916)" fill="#E07C00" width="3.246" height="3.207"/>
	<polygon fill="#6E7C7C" points="1067.364,482.08 1069.648,479.797 1067.377,477.526 1065.094,479.81 	"/>
	<polygon fill="#003764" points="1149.208,536.626 1153.737,532.098 1151.466,529.814 1146.938,534.355 	"/>
	
		<rect x="1119.176" y="470.91" transform="matrix(-0.7071 0.7071 -0.7071 -0.7071 2248.5566 16.8644)" fill="#003764" width="3.22" height="6.427"/>
	<polygon fill="#003764" points="1135.521,586.592 1137.779,584.322 1135.521,582.051 1133.25,584.334 	"/>
	<polygon fill="#003764" points="1105.964,607.028 1108.235,604.744 1105.964,602.486 1103.694,604.744 	"/>
	<polygon fill="#003764" points="1103.732,468.431 1106.016,466.16 1103.745,463.89 1101.474,466.173 	"/>
	
		<rect x="1124.815" y="596.35" transform="matrix(-0.7063 0.7079 -0.7079 -0.7063 2345.3262 222.8999)" fill="#003764" width="3.22" height="3.22"/>
	<polygon fill="#E07C00" points="1110.57,475.256 1115.124,470.714 1110.57,466.16 1106.029,470.714 	"/>
	
		<rect x="1143.698" y="490.216" transform="matrix(-0.7074 0.7068 -0.7068 -0.7074 2307.0532 31.8065)" fill="#003764" width="6.491" height="6.414"/>
	<polygon fill="#E07C00" points="1058.282,482.067 1062.823,477.526 1060.552,475.256 1056.011,479.797 	"/>
	<polygon fill="#003764" points="1119.626,607.04 1115.073,602.486 1112.815,604.757 1117.356,609.311 	"/>
	
		<rect x="1157.786" y="532.228" transform="matrix(-0.7072 0.707 -0.707 -0.7072 2357.8936 94.4189)" fill="#003764" width="3.22" height="6.44"/>
	<polygon fill="#003764" points="1131.031,491.163 1135.572,486.621 1133.289,484.338 1128.747,488.892 	"/>
	<polygon fill="#E07C00" points="1144.667,518.448 1135.572,527.544 1133.289,525.273 1142.397,516.178 	"/>
	<polygon fill="#E07C00" points="1094.65,586.643 1096.92,588.914 1094.65,591.185 1092.366,588.901 	"/>
	
		<rect x="1074.861" y="596.393" transform="matrix(-0.7073 0.7069 -0.7069 -0.7073 2260.5825 260.0035)" fill="#003764" width="3.207" height="3.207"/>
	
		<rect x="1112.368" y="564.113" transform="matrix(-0.7072 0.707 -0.707 -0.7072 2302.8831 180.9583)" fill="#6E7C7C" width="3.207" height="6.427"/>
	
		<rect x="1087.329" y="602.766" transform="matrix(-0.7067 0.7075 -0.7075 -0.7067 2287.207 263.7315)" fill="#003764" width="3.22" height="6.35"/>
	
		<rect x="1107.341" y="619.724" transform="matrix(-0.7074 0.7068 -0.7068 -0.7074 2336.4915 278.6618)" fill="#6E7C7C" width="6.453" height="6.44"/>
	
		<rect x="1152.386" y="557.824" transform="matrix(-0.7067 0.7075 -0.7075 -0.7067 2371.0605 139.2653)" fill="#003764" width="8.556" height="6.53"/>
	<polygon fill="#6E7C7C" points="1090.109,586.618 1094.65,582.089 1083.297,570.724 1078.756,575.278 	"/>
	
		<rect x="1103.229" y="591.352" transform="matrix(-0.7069 0.7073 -0.7073 -0.7069 2306.3811 233.4015)" fill="#E07C00" width="3.207" height="6.414"/>
	<g>
		<g>
			<path fill="#FFFFFF" d="M844.537,527.672c-3.887,0-7.812,1.681-10.814,4.554c-2.874,2.732-4.464,6.581-4.464,10.686
				c0,8.274,6.786,15.06,15.099,15.099h6.299c0,0,1.27-6.645-5.388-6.658l-0.757,0.038c-4.682,0.192-8.492-3.797-8.492-8.492
				c0-4.682,3.797-8.518,8.428-8.518c4.631,0,8.518,3.887,8.518,8.518l-0.051,20.525h0.013v2.053
				c0.013,6.658,6.658,5.388,6.658,5.388v-27.991C859.597,534.471,852.927,527.672,844.537,527.672 M769.427,515.075h-5.516
				c-2.655,0-6.722,1.655-6.722,6.799v24.412l0.013,4.9v6.632c0,0,6.645,1.244,6.645-6.504v-29.582h5.465
				c8.146,0,14.15,6.247,14.15,15.227c0,14.329-11.956,14.291-11.956,14.291c-6.645,0.013-5.388,6.658-5.388,6.658h3.849
				c12.148,0,20.217-8.018,20.217-20.41C790.183,524.426,782.64,515.075,769.427,515.075 M824.935,527.762
				c0,0-6.645-1.257-6.645,5.388v3.515l-0.013,5.901c0,4.682-3.874,8.518-8.505,8.518h-0.051c-4.631,0-8.518-3.836-8.518-8.518
				v-0.962l-0.013-4.952v-3.515c0-6.645-6.645-5.388-6.645-5.388v8.903l-0.013,5.901h0.013c0,4.105,1.591,7.941,4.464,10.686
				c2.989,2.861,6.889,4.528,10.75,4.554c3.874-0.013,7.761-1.693,10.75-4.554c2.874-2.732,4.464-6.581,4.464-10.686l-0.013-5.901
				v-8.89H824.935z M991.382,525.401c1.873,0,3.399-1.514,3.399-3.387s-1.527-3.387-3.399-3.387s-3.399,1.527-3.399,3.387
				C987.983,523.888,989.509,525.401,991.382,525.401 M1000.375,525.401c1.873,0,3.387-1.514,3.387-3.387s-1.514-3.387-3.387-3.387
				c-1.873,0-3.4,1.527-3.4,3.387C996.975,523.888,998.502,525.401,1000.375,525.401 M913.656,532.264
				c-2.989-2.861-6.889-4.541-10.763-4.554c-3.861,0.013-7.761,1.693-10.75,4.554c-0.411,0.385-0.77,0.795-1.129,1.232
				c-0.346-0.436-0.731-0.847-1.129-1.232c-2.989-2.861-6.889-4.541-10.75-4.554c-3.874,0.013-7.761,1.693-10.75,4.554
				c-2.874,2.732-4.464,6.581-4.464,10.686v14.971c0,0,6.645,1.27,6.658-5.388l0.013-9.583c0-4.682,3.887-8.531,8.518-8.531h0.051
				c4.631,0,8.518,3.836,8.518,8.531l0.013,9.583v5.388c0,0,6.299,1.18,6.619-4.9l0.026,0.013v-0.423c0-0.026,0-0.051,0-0.077
				l0.013-9.583c0-4.682,3.874-8.531,8.518-8.531h0.051c4.644,0,8.531,3.836,8.531,8.531l0.013,9.583
				c0.013,6.658,6.658,5.388,6.658,5.388l0.013-14.971h-0.013C918.12,538.832,916.516,534.997,913.656,532.264 M960.633,532.059
				c-2.745-2.874-6.581-4.464-10.686-4.464c-8.274,0-15.06,6.786-15.112,15.099v6.299c0,0,6.645,1.27,6.658-5.388v-0.693
				l-0.013-0.154c-0.192-4.669,3.771-8.403,8.467-8.403c4.669,0,8.518,3.797,8.518,8.441c0,4.631-3.887,8.531-8.518,8.531
				l-12.559-0.038h-3.181c-3.887,0-7.543,1.732-10.545,4.605c-2.707,2.591-4.259,6.158-4.426,10.006l-0.013,0.513v4.503
				c0,0,6.645,1.27,6.658-5.388l0,0c0.513-4.208,4.079-7.505,8.364-7.505h0.808l0,0h14.945c8.402,0,15.189-6.748,15.189-15.15
				C965.161,538.974,963.494,535.048,960.633,532.059 M1051.483,520.873v21.821v0.103c0,4.631-3.951,8.505-8.582,8.505h-3.053
				c-0.192-0.013-0.398-0.026-0.616-0.026h-0.59v-8.313c0-3.887-1.681-7.812-4.554-10.814c-2.732-2.861-6.568-4.451-10.673-4.451
				l0,0h-7.017c0,0-1.257,6.658,5.401,6.658h2.014c4.503,0.218,8.133,4.028,8.133,8.531v8.39h-17.395
				c-6.658,0.013-5.388,6.645-5.388,6.645h33.905c8.39,0,15.073-6.684,15.073-15.073v-27.363
				C1058.141,515.485,1051.495,514.228,1051.483,520.873 M1062.425,520.873v36.958c0,0,6.427,1.206,6.658-5.054v-37.292
				C1069.083,515.485,1062.438,514.228,1062.425,520.873 M993.832,527.582c-8.274,0-15.048,6.786-15.086,15.099v6.299
				c0,0,6.645,1.27,6.645-5.388l-0.051-0.757c-0.192-4.682,3.81-8.492,8.492-8.492s8.531,3.797,8.531,8.441
				c0,4.631-3.887,8.531-8.531,8.531l-20.5-0.038h-3.515c-6.658,0.013-5.388,6.658-5.388,6.658h29.454
				c8.403,0,15.189-6.658,15.189-15.06c0-3.887-1.668-7.812-4.554-10.814C1001.786,529.186,997.937,527.582,993.832,527.582"/>
		</g>
		<g>
			<path fill="#FFFFFF" d="M757.702,592.378c0.436,0.167,0.885,0.308,1.373,0.423c0.475,0.115,1.052,0.18,1.757,0.18
				c1.09,0,1.899-0.218,2.437-0.667c0.539-0.436,0.808-1.039,0.808-1.796c0-0.372-0.051-0.693-0.167-0.962
				c-0.115-0.257-0.282-0.5-0.513-0.68c-0.231-0.192-0.513-0.372-0.847-0.526c-0.334-0.167-0.731-0.333-1.18-0.513l-1.129-0.462
				c-0.398-0.167-0.744-0.334-1.065-0.526c-0.321-0.192-0.59-0.436-0.821-0.718c-0.231-0.269-0.423-0.603-0.552-0.962
				c-0.128-0.372-0.192-0.808-0.192-1.308c0-1.206,0.411-2.142,1.232-2.835c0.821-0.68,1.976-1.026,3.464-1.026
				c0.641,0,1.244,0.051,1.809,0.167c0.577,0.103,1.078,0.231,1.514,0.398c-0.064,0.552-0.218,1.103-0.436,1.655
				c-0.359-0.128-0.77-0.257-1.244-0.359c-0.475-0.103-1.013-0.154-1.604-0.154c-0.834,0-1.488,0.167-1.937,0.513
				c-0.449,0.334-0.68,0.847-0.68,1.527c0,0.282,0.064,0.526,0.167,0.744c0.115,0.231,0.269,0.423,0.449,0.59
				c0.18,0.167,0.411,0.321,0.654,0.449c0.257,0.128,0.513,0.257,0.795,0.359l1.116,0.436c0.539,0.205,1.001,0.423,1.411,0.667
				c0.411,0.231,0.77,0.5,1.065,0.821c0.282,0.308,0.513,0.68,0.667,1.103s0.231,0.924,0.231,1.501c0,1.36-0.475,2.437-1.411,3.233
				c-0.949,0.795-2.258,1.18-3.951,1.18c-0.423,0-0.783-0.013-1.129-0.039c-0.334-0.026-0.641-0.064-0.924-0.115
				c-0.282-0.051-0.564-0.128-0.834-0.205s-0.539-0.167-0.808-0.257c0.026-0.295,0.077-0.59,0.18-0.898
				C757.497,592.981,757.6,592.673,757.702,592.378"/>
		</g>
		<g>
			<path fill="#FFFFFF" d="M768.735,584.334c0.128-0.026,0.269-0.038,0.411-0.064c0.141-0.013,0.282-0.026,0.423-0.026
				c0.128,0,0.269,0.013,0.423,0.026c0.141,0.013,0.282,0.038,0.411,0.064c0.013,0.026,0.026,0.103,0.051,0.244
				c0.013,0.141,0.039,0.295,0.064,0.449c0.026,0.154,0.039,0.308,0.064,0.449c0.026,0.141,0.026,0.244,0.026,0.282
				c0.128-0.218,0.295-0.423,0.475-0.616c0.192-0.192,0.411-0.372,0.667-0.552c0.257-0.154,0.552-0.269,0.872-0.359
				c0.334-0.103,0.693-0.141,1.09-0.141c0.603,0,1.155,0.103,1.668,0.295c0.513,0.205,0.949,0.513,1.308,0.924
				c0.372,0.423,0.654,0.949,0.859,1.591s0.308,1.411,0.308,2.283c0,1.758-0.475,3.13-1.424,4.118
				c-0.949,0.988-2.296,1.475-4.041,1.475c-0.295,0-0.59-0.013-0.885-0.051c-0.308-0.038-0.577-0.09-0.795-0.167v4.682
				c-0.167,0.013-0.333,0.038-0.513,0.051c-0.18,0.013-0.346,0.026-0.487,0.026s-0.308-0.013-0.487-0.026
				c-0.18-0.013-0.346-0.039-0.487-0.051L768.735,584.334L768.735,584.334z M770.71,592.878c0.257,0.09,0.513,0.154,0.77,0.205
				c0.269,0.039,0.616,0.051,1.039,0.051c0.475,0,0.911-0.064,1.308-0.218c0.398-0.154,0.744-0.385,1.026-0.706
				c0.282-0.321,0.5-0.718,0.68-1.193c0.167-0.487,0.244-1.065,0.244-1.719c0-1.065-0.192-1.911-0.59-2.54
				c-0.398-0.629-1.039-0.936-1.924-0.936c-0.334,0-0.654,0.064-0.962,0.18c-0.308,0.128-0.577,0.295-0.808,0.539
				c-0.244,0.244-0.436,0.539-0.577,0.911c-0.141,0.359-0.218,0.795-0.218,1.296v4.131H770.71z"/>
		</g>
		<g>
			<path fill="#FFFFFF" d="M781.986,589.94c0.026,1.103,0.308,1.937,0.859,2.45c0.552,0.513,1.36,0.77,2.437,0.77
				c0.949,0,1.834-0.167,2.694-0.487c0.103,0.205,0.192,0.449,0.257,0.718c0.064,0.295,0.103,0.564,0.115,0.847
				c-0.436,0.18-0.924,0.321-1.437,0.411c-0.526,0.103-1.103,0.141-1.745,0.141c-0.924,0-1.719-0.128-2.386-0.385
				c-0.667-0.257-1.206-0.616-1.642-1.09c-0.436-0.475-0.744-1.039-0.949-1.68s-0.295-1.347-0.295-2.117
				c0-0.757,0.09-1.462,0.282-2.117c0.192-0.654,0.487-1.232,0.885-1.719c0.398-0.487,0.898-0.872,1.501-1.142
				c0.603-0.282,1.321-0.436,2.142-0.436c0.706,0,1.321,0.115,1.847,0.359c0.526,0.244,0.975,0.577,1.334,0.988
				c0.359,0.411,0.629,0.911,0.821,1.488c0.192,0.577,0.282,1.206,0.282,1.886c0,0.192-0.013,0.385-0.026,0.59
				c-0.013,0.205-0.026,0.385-0.038,0.526H781.986z M787.053,588.465c0-0.372-0.051-0.731-0.154-1.065
				c-0.103-0.346-0.244-0.641-0.436-0.898c-0.192-0.257-0.436-0.449-0.731-0.603s-0.654-0.244-1.065-0.244
				c-0.808,0-1.424,0.257-1.86,0.744c-0.436,0.487-0.693,1.167-0.783,2.052h5.029V588.465z"/>
		</g>
		<g>
			<path fill="#FFFFFF" d="M798.406,592.775c0.103,0.192,0.192,0.423,0.269,0.693c0.09,0.282,0.128,0.577,0.141,0.859
				c-0.783,0.308-1.693,0.449-2.694,0.449c-1.706,0-2.989-0.475-3.849-1.437c-0.859-0.962-1.296-2.258-1.296-3.887
				c0-0.757,0.103-1.462,0.321-2.117c0.218-0.641,0.526-1.206,0.949-1.693c0.423-0.475,0.936-0.86,1.565-1.129
				c0.616-0.269,1.347-0.423,2.168-0.423c0.552,0,1.052,0.026,1.475,0.103c0.423,0.064,0.834,0.18,1.219,0.321
				c0,0.218-0.026,0.475-0.09,0.782c-0.051,0.295-0.141,0.564-0.244,0.783c-0.654-0.231-1.398-0.346-2.232-0.346
				c-1.026,0-1.783,0.346-2.283,1.013c-0.5,0.68-0.757,1.578-0.757,2.694c0,1.27,0.282,2.206,0.859,2.797
				c0.564,0.59,1.347,0.885,2.348,0.885c0.398,0,0.77-0.026,1.103-0.077C797.714,593.006,798.06,592.917,798.406,592.775"/>
		</g>
		<g>
			<path fill="#FFFFFF" d="M801.703,585.887h-1.296c-0.026-0.103-0.051-0.231-0.064-0.372c-0.013-0.141-0.013-0.269-0.013-0.41
				s0-0.269,0.013-0.411s0.038-0.269,0.064-0.372h3.233v10.211c-0.141,0.039-0.308,0.051-0.487,0.051
				c-0.18,0.026-0.334,0.026-0.487,0.026c-0.128,0-0.295,0-0.462-0.026c-0.18,0-0.346-0.013-0.487-0.051v-8.646H801.703z
				 M801.267,582.089c-0.026-0.154-0.051-0.334-0.051-0.513c0-0.18,0-0.359,0-0.5c0-0.154,0-0.321,0-0.5
				c0.013-0.192,0.026-0.359,0.051-0.5c0.167-0.026,0.359-0.038,0.552-0.051c0.205-0.013,0.372-0.026,0.513-0.026
				s0.321,0.013,0.513,0.026c0.192,0.013,0.372,0.026,0.539,0.051c0.026,0.141,0.051,0.308,0.051,0.5c0,0.192,0.013,0.359,0.013,0.5
				s0,0.308-0.013,0.5c0,0.18-0.026,0.359-0.051,0.513c-0.154,0.026-0.334,0.039-0.526,0.051c-0.192,0.013-0.359,0.026-0.513,0.026
				s-0.333-0.013-0.539-0.026C801.626,582.128,801.434,582.115,801.267,582.089"/>
		</g>
		<g>
			<path fill="#FFFFFF" d="M812.248,587.824c0-0.783-0.192-1.334-0.59-1.629c-0.398-0.295-0.975-0.462-1.732-0.462
				c-0.462,0-0.898,0.039-1.296,0.103c-0.398,0.077-0.795,0.18-1.193,0.282c-0.257-0.436-0.372-0.962-0.372-1.578
				c0.449-0.141,0.949-0.257,1.488-0.334c0.539-0.077,1.065-0.115,1.578-0.115c1.334,0,2.335,0.308,3.027,0.898
				c0.693,0.616,1.039,1.578,1.039,2.899v6.388c-0.462,0.103-1.039,0.218-1.693,0.334c-0.667,0.115-1.347,0.167-2.027,0.167
				c-0.654,0-1.232-0.051-1.758-0.18c-0.526-0.103-0.962-0.308-1.334-0.564c-0.359-0.269-0.654-0.616-0.847-1.013
				c-0.205-0.411-0.295-0.911-0.295-1.501c0-0.564,0.115-1.065,0.346-1.501c0.231-0.436,0.552-0.782,0.949-1.078
				c0.398-0.295,0.859-0.5,1.373-0.641c0.513-0.141,1.065-0.218,1.629-0.218c0.423,0,0.783,0.013,1.052,0.039
				c0.269,0.013,0.5,0.038,0.68,0.064v-0.359H812.248z M812.248,589.761c-0.192-0.026-0.449-0.051-0.757-0.077
				s-0.564-0.038-0.783-0.038c-0.821,0-1.45,0.154-1.886,0.462s-0.654,0.782-0.654,1.398c0,0.398,0.077,0.706,0.218,0.936
				c0.141,0.218,0.333,0.398,0.552,0.513c0.218,0.115,0.462,0.192,0.731,0.218c0.269,0.026,0.513,0.038,0.757,0.038
				c0.308,0,0.629-0.013,0.949-0.051c0.321-0.026,0.616-0.09,0.859-0.154v-3.246H812.248z"/>
		</g>
		<g>
			<path fill="#FFFFFF" d="M817.11,579.947c0.141-0.026,0.308-0.051,0.487-0.064c0.18-0.013,0.346-0.013,0.487-0.013
				c0.154,0,0.308,0,0.487,0.013c0.18,0.013,0.346,0.026,0.487,0.064v11.52c0,0.372,0.038,0.667,0.103,0.872
				c0.077,0.218,0.154,0.385,0.269,0.5c0.115,0.115,0.244,0.192,0.398,0.218c0.154,0.038,0.321,0.051,0.487,0.051
				c0.115,0,0.257-0.013,0.411-0.026c0.141-0.013,0.282-0.026,0.385-0.064c0.115,0.475,0.18,0.975,0.18,1.514
				c-0.192,0.064-0.411,0.103-0.68,0.128c-0.269,0.026-0.513,0.026-0.731,0.026c-0.385,0-0.744-0.051-1.078-0.141
				c-0.333-0.09-0.629-0.244-0.872-0.462c-0.257-0.205-0.449-0.5-0.59-0.859c-0.154-0.359-0.218-0.808-0.218-1.334v-11.943H817.11z"
				/>
		</g>
		<g>
			<path fill="#FFFFFF" d="M827.963,580.229h7.864c0.038,0.269,0.051,0.552,0.051,0.872c0,0.141,0,0.295,0,0.462
				c-0.013,0.154-0.026,0.308-0.051,0.436h-5.837v4.105h4.657c0.026,0.128,0.051,0.282,0.051,0.436
				c0.013,0.154,0.026,0.295,0.026,0.436c0,0.154,0,0.295-0.026,0.462c-0.013,0.167-0.026,0.308-0.051,0.436h-4.657v4.9h6.004
				c0.038,0.269,0.051,0.552,0.051,0.872c0,0.154,0,0.295-0.013,0.462c0,0.154-0.026,0.308-0.038,0.436h-8.031V580.229z"/>
		</g>
		<g>
			<path fill="#FFFFFF" d="M845.127,592.775c0.103,0.192,0.192,0.423,0.269,0.693c0.09,0.282,0.128,0.577,0.141,0.859
				c-0.783,0.308-1.681,0.449-2.694,0.449c-1.693,0-2.989-0.475-3.836-1.437c-0.859-0.962-1.296-2.258-1.296-3.887
				c0-0.757,0.115-1.462,0.321-2.117c0.205-0.641,0.526-1.206,0.949-1.693c0.423-0.475,0.936-0.86,1.565-1.129
				c0.629-0.269,1.347-0.423,2.168-0.423c0.552,0,1.052,0.026,1.475,0.103c0.423,0.064,0.834,0.18,1.206,0.321
				c0,0.218-0.026,0.475-0.09,0.782c-0.064,0.295-0.141,0.564-0.244,0.783c-0.654-0.231-1.398-0.346-2.232-0.346
				c-1.026,0-1.783,0.346-2.296,1.013c-0.5,0.68-0.757,1.578-0.757,2.694c0,1.27,0.282,2.206,0.847,2.797s1.36,0.885,2.36,0.885
				c0.398,0,0.757-0.026,1.103-0.077C844.447,593.006,844.781,592.917,845.127,592.775"/>
		</g>
		<g>
			<path fill="#FFFFFF" d="M851.682,594.789c-0.795,0-1.501-0.128-2.091-0.398c-0.59-0.269-1.09-0.654-1.488-1.129
				c-0.398-0.475-0.693-1.039-0.885-1.693c-0.192-0.654-0.282-1.36-0.282-2.104c0-0.757,0.09-1.462,0.282-2.117
				c0.192-0.654,0.487-1.219,0.885-1.693c0.398-0.475,0.898-0.859,1.488-1.129c0.59-0.269,1.296-0.423,2.091-0.423
				s1.488,0.141,2.091,0.423c0.603,0.269,1.09,0.654,1.488,1.129c0.398,0.475,0.693,1.039,0.885,1.693
				c0.192,0.654,0.295,1.36,0.295,2.117c0,0.757-0.09,1.462-0.295,2.104c-0.192,0.654-0.487,1.219-0.885,1.693
				c-0.398,0.487-0.898,0.86-1.488,1.129C853.183,594.661,852.478,594.789,851.682,594.789 M851.682,593.224
				c0.924,0,1.591-0.334,2.027-0.988c0.436-0.667,0.654-1.591,0.654-2.771c0-1.18-0.218-2.104-0.654-2.758
				c-0.436-0.667-1.116-0.988-2.027-0.988c-0.924,0-1.591,0.321-2.027,0.988c-0.436,0.654-0.654,1.578-0.654,2.758
				s0.218,2.104,0.654,2.771C850.092,592.891,850.771,593.224,851.682,593.224"/>
		</g>
		<g>
			<path fill="#FFFFFF" d="M859.033,584.334c0.141-0.026,0.282-0.038,0.436-0.064c0.128-0.013,0.282-0.026,0.423-0.026
				c0.154,0,0.282,0.013,0.411,0.026s0.269,0.026,0.411,0.064c0.039,0.192,0.077,0.462,0.115,0.795
				c0.038,0.346,0.064,0.629,0.064,0.847c0.128-0.218,0.295-0.449,0.5-0.68s0.436-0.423,0.706-0.603
				c0.269-0.18,0.564-0.321,0.911-0.449c0.346-0.103,0.718-0.167,1.142-0.167c1.167,0,2.027,0.333,2.578,1.013
				c0.564,0.667,0.834,1.655,0.834,2.976v6.478c-0.141,0.026-0.308,0.051-0.487,0.051c-0.192,0.026-0.359,0.026-0.5,0.026
				c-0.154,0-0.308,0-0.487-0.026c-0.18,0-0.346-0.026-0.487-0.051v-5.939c0-0.937-0.141-1.642-0.436-2.078
				c-0.295-0.449-0.757-0.667-1.398-0.667c-0.372,0-0.718,0.064-1.052,0.192s-0.629,0.346-0.872,0.616
				c-0.257,0.282-0.462,0.641-0.603,1.09c-0.154,0.449-0.231,0.975-0.231,1.604v5.183c-0.141,0.026-0.308,0.051-0.487,0.051
				c-0.18,0.026-0.346,0.026-0.487,0.026s-0.308,0-0.5-0.026c-0.192,0-0.359-0.026-0.5-0.051V584.334z"/>
		</g>
		<g>
			<path fill="#FFFFFF" d="M874.696,594.789c-0.795,0-1.501-0.128-2.091-0.398c-0.603-0.269-1.103-0.654-1.501-1.129
				c-0.398-0.475-0.693-1.039-0.885-1.693c-0.192-0.654-0.295-1.36-0.295-2.104c0-0.757,0.09-1.462,0.295-2.117
				c0.192-0.654,0.487-1.219,0.885-1.693c0.398-0.475,0.898-0.859,1.501-1.129c0.59-0.269,1.296-0.423,2.091-0.423
				s1.488,0.141,2.091,0.423c0.59,0.269,1.09,0.654,1.488,1.129c0.398,0.475,0.693,1.039,0.885,1.693
				c0.192,0.654,0.282,1.36,0.282,2.117c0,0.757-0.09,1.462-0.282,2.104c-0.192,0.654-0.487,1.219-0.885,1.693
				c-0.398,0.487-0.898,0.86-1.488,1.129C876.184,594.661,875.492,594.789,874.696,594.789 M874.696,593.224
				c0.911,0,1.591-0.334,2.027-0.988c0.436-0.667,0.654-1.591,0.654-2.771c0-1.18-0.218-2.104-0.654-2.758
				c-0.436-0.667-1.116-0.988-2.027-0.988c-0.911,0-1.591,0.321-2.027,0.988c-0.436,0.654-0.641,1.578-0.641,2.758
				s0.218,2.104,0.641,2.771C873.105,592.891,873.773,593.224,874.696,593.224"/>
		</g>
		<g>
			<path fill="#FFFFFF" d="M882.047,584.334c0.141-0.026,0.282-0.038,0.423-0.064c0.141-0.013,0.282-0.026,0.423-0.026
				s0.282,0.013,0.411,0.026c0.128,0.013,0.257,0.026,0.41,0.064c0.051,0.192,0.077,0.462,0.128,0.783
				c0.039,0.321,0.051,0.603,0.051,0.834c0.128-0.244,0.269-0.462,0.449-0.693c0.192-0.218,0.398-0.423,0.641-0.577
				c0.244-0.18,0.526-0.321,0.847-0.423c0.321-0.103,0.667-0.154,1.052-0.154c0.795,0,1.411,0.167,1.847,0.487
				c0.436,0.333,0.77,0.782,0.988,1.373c0.128-0.231,0.295-0.449,0.487-0.68s0.411-0.436,0.641-0.603
				c0.244-0.18,0.513-0.321,0.821-0.423c0.308-0.103,0.654-0.154,1.039-0.154c1.18,0,2.04,0.334,2.578,0.988
				c0.539,0.667,0.808,1.655,0.808,2.951v6.517c-0.141,0.026-0.308,0.051-0.5,0.051c-0.192,0.026-0.346,0.026-0.5,0.026
				s-0.308,0-0.487-0.026c-0.18,0-0.346-0.026-0.487-0.051v-5.94c0-0.911-0.141-1.604-0.423-2.065s-0.731-0.68-1.373-0.68
				c-0.68,0-1.232,0.257-1.642,0.731c-0.411,0.487-0.629,1.219-0.629,2.168v5.773c-0.141,0.026-0.308,0.051-0.487,0.051
				c-0.18,0.026-0.334,0.026-0.487,0.026c-0.141,0-0.308,0-0.487-0.026c-0.18,0-0.334-0.026-0.487-0.051v-6.068
				c0-0.898-0.128-1.552-0.398-2.001c-0.269-0.449-0.693-0.667-1.27-0.667c-0.334,0-0.654,0.077-0.936,0.218
				c-0.295,0.141-0.552,0.359-0.77,0.654c-0.218,0.295-0.398,0.667-0.526,1.103c-0.128,0.449-0.18,0.962-0.18,1.539v5.221
				c-0.154,0.026-0.308,0.051-0.487,0.051c-0.18,0.026-0.333,0.026-0.487,0.026c-0.141,0-0.308,0-0.5-0.026
				c-0.18,0-0.346-0.026-0.5-0.051V584.334L882.047,584.334z"/>
		</g>
		<g>
			<path fill="#FFFFFF" d="M899.647,585.887h-1.296c-0.026-0.103-0.051-0.231-0.064-0.372c-0.013-0.141-0.013-0.269-0.013-0.41
				s0-0.269,0.013-0.411s0.038-0.269,0.064-0.372h3.233v10.211c-0.154,0.039-0.308,0.051-0.487,0.051
				c-0.18,0.026-0.346,0.026-0.487,0.026c-0.128,0-0.282,0-0.462-0.026c-0.18,0-0.346-0.013-0.487-0.051v-8.646H899.647z
				 M899.211,582.089c-0.026-0.154-0.051-0.334-0.051-0.513c0-0.18-0.013-0.359-0.013-0.5c0-0.154,0-0.321,0.013-0.5
				c0-0.192,0.026-0.359,0.051-0.5c0.167-0.026,0.359-0.038,0.564-0.051c0.192-0.013,0.372-0.026,0.513-0.026
				s0.321,0.013,0.513,0.026c0.205,0.013,0.385,0.026,0.539,0.051c0.026,0.141,0.051,0.308,0.051,0.5
				c0.013,0.192,0.013,0.359,0.013,0.5s0,0.308-0.013,0.5c0,0.18-0.026,0.359-0.051,0.513c-0.154,0.026-0.334,0.039-0.526,0.051
				c-0.192,0.013-0.359,0.026-0.513,0.026c-0.154,0-0.333-0.013-0.539-0.026C899.57,582.128,899.391,582.115,899.211,582.089"/>
		</g>
		<g>
			<path fill="#FFFFFF" d="M911.603,592.775c0.103,0.192,0.205,0.423,0.282,0.693c0.077,0.282,0.128,0.577,0.141,0.859
				c-0.783,0.308-1.693,0.449-2.694,0.449c-1.693,0-2.976-0.475-3.836-1.437c-0.859-0.962-1.296-2.258-1.296-3.887
				c0-0.757,0.103-1.462,0.321-2.117c0.205-0.641,0.526-1.206,0.949-1.693c0.423-0.475,0.936-0.86,1.565-1.129
				c0.616-0.269,1.347-0.423,2.168-0.423c0.564,0,1.052,0.026,1.475,0.103c0.423,0.064,0.834,0.18,1.219,0.321
				c0,0.218-0.026,0.475-0.09,0.782c-0.051,0.295-0.141,0.564-0.244,0.783c-0.654-0.231-1.398-0.346-2.232-0.346
				c-1.013,0-1.783,0.346-2.283,1.013c-0.513,0.68-0.757,1.578-0.757,2.694c0,1.27,0.295,2.206,0.859,2.797s1.347,0.885,2.348,0.885
				c0.398,0,0.77-0.026,1.116-0.077C910.923,593.006,911.257,592.917,911.603,592.775"/>
		</g>
		<g>
			<path fill="#FFFFFF" d="M917.915,594.366L925.124,582H918.8c-0.026-0.128-0.038-0.257-0.051-0.411
				c-0.013-0.167-0.026-0.308-0.026-0.462c0-0.141,0-0.295,0.026-0.462c0.013-0.167,0.038-0.308,0.051-0.436h9.301l0.141,0.192
				l-7.235,12.367h6.722c0.026,0.115,0.051,0.257,0.064,0.436c0.013,0.167,0.013,0.321,0.013,0.475c0,0.141-0.013,0.295-0.013,0.449
				c-0.013,0.167-0.039,0.295-0.064,0.423h-9.698L917.915,594.366z"/>
		</g>
		<g>
			<path fill="#FFFFFF" d="M933.95,594.789c-0.795,0-1.488-0.128-2.091-0.398c-0.603-0.269-1.09-0.654-1.501-1.129
				c-0.398-0.475-0.693-1.039-0.885-1.693c-0.192-0.654-0.295-1.36-0.295-2.104c0-0.757,0.103-1.462,0.295-2.117
				c0.192-0.654,0.487-1.219,0.885-1.693c0.398-0.475,0.898-0.859,1.501-1.129c0.59-0.269,1.296-0.423,2.091-0.423
				c0.808,0,1.501,0.141,2.091,0.423c0.59,0.269,1.103,0.654,1.501,1.129c0.398,0.475,0.693,1.039,0.885,1.693
				s0.282,1.36,0.282,2.117c0,0.757-0.09,1.462-0.282,2.104c-0.192,0.654-0.487,1.219-0.885,1.693
				c-0.398,0.487-0.898,0.86-1.501,1.129C935.451,594.661,934.758,594.789,933.95,594.789 M933.95,593.224
				c0.911,0,1.604-0.334,2.04-0.988c0.436-0.667,0.654-1.591,0.654-2.771c0-1.18-0.218-2.104-0.654-2.758
				c-0.436-0.667-1.116-0.988-2.04-0.988c-0.911,0-1.591,0.321-2.014,0.988c-0.436,0.654-0.654,1.578-0.654,2.758
				s0.218,2.104,0.654,2.771C932.372,592.891,933.039,593.224,933.95,593.224"/>
		</g>
		<g>
			<path fill="#FFFFFF" d="M941.301,584.334c0.141-0.026,0.295-0.038,0.423-0.064c0.141-0.013,0.282-0.026,0.436-0.026
				c0.141,0,0.282,0.013,0.398,0.026c0.128,0.013,0.269,0.026,0.411,0.064c0.039,0.192,0.09,0.462,0.115,0.795
				c0.038,0.346,0.064,0.629,0.064,0.847c0.128-0.218,0.295-0.449,0.513-0.68c0.205-0.231,0.449-0.423,0.706-0.603
				c0.269-0.18,0.564-0.321,0.924-0.449c0.334-0.103,0.718-0.167,1.129-0.167c1.167,0,2.027,0.333,2.591,1.013
				c0.564,0.667,0.834,1.655,0.834,2.976v6.478c-0.141,0.026-0.308,0.051-0.487,0.051c-0.192,0.026-0.346,0.026-0.5,0.026
				s-0.308,0-0.487-0.026c-0.18,0-0.346-0.026-0.487-0.051v-5.939c0-0.937-0.141-1.642-0.436-2.078
				c-0.282-0.449-0.757-0.667-1.385-0.667c-0.372,0-0.731,0.064-1.065,0.192c-0.333,0.128-0.629,0.346-0.885,0.616
				c-0.244,0.282-0.449,0.641-0.603,1.09c-0.154,0.449-0.231,0.975-0.231,1.604v5.183c-0.141,0.026-0.308,0.051-0.487,0.051
				c-0.18,0.026-0.346,0.026-0.487,0.026s-0.321,0-0.5-0.026c-0.18,0-0.359-0.026-0.5-0.051L941.301,584.334L941.301,584.334z"/>
		</g>
		<g>
			<path fill="#FFFFFF" d="M954.296,589.94c0.026,1.103,0.308,1.937,0.859,2.45s1.36,0.77,2.437,0.77
				c0.936,0,1.834-0.167,2.694-0.487c0.103,0.205,0.192,0.449,0.257,0.718c0.064,0.295,0.103,0.564,0.115,0.847
				c-0.449,0.18-0.924,0.321-1.45,0.411c-0.513,0.103-1.103,0.141-1.745,0.141c-0.936,0-1.732-0.128-2.386-0.385
				c-0.667-0.257-1.219-0.616-1.642-1.09c-0.436-0.475-0.744-1.039-0.949-1.68s-0.295-1.347-0.295-2.117
				c0-0.757,0.09-1.462,0.295-2.117c0.192-0.654,0.487-1.232,0.885-1.719c0.398-0.487,0.898-0.872,1.501-1.142
				c0.603-0.282,1.321-0.436,2.142-0.436c0.706,0,1.321,0.115,1.847,0.359c0.526,0.244,0.975,0.577,1.334,0.988
				c0.359,0.411,0.629,0.911,0.808,1.488c0.192,0.577,0.282,1.206,0.282,1.886c0,0.192,0,0.385-0.026,0.59
				c-0.013,0.205-0.026,0.385-0.038,0.526H954.296z M959.35,588.465c0-0.372-0.051-0.731-0.154-1.065
				c-0.103-0.346-0.244-0.641-0.436-0.898c-0.192-0.257-0.436-0.449-0.744-0.603c-0.295-0.154-0.654-0.244-1.065-0.244
				c-0.808,0-1.437,0.257-1.86,0.744c-0.436,0.487-0.693,1.167-0.795,2.052h5.054V588.465z"/>
		</g>
		<g>
			<path fill="#FFFFFF" d="M975.822,591.249h-5.439l-0.975,3.31c-0.167,0.026-0.346,0.051-0.513,0.051
				c-0.18,0.026-0.346,0.026-0.513,0.026c-0.192,0-0.372,0-0.552-0.026c-0.18,0-0.346-0.026-0.487-0.051l4.657-14.329
				c0.18-0.026,0.359-0.039,0.564-0.064c0.192-0.013,0.398-0.013,0.616-0.013c0.192,0,0.372,0.013,0.577,0.013
				c0.192,0.013,0.385,0.039,0.577,0.064l4.644,14.329c-0.167,0.026-0.346,0.051-0.539,0.051c-0.192,0.026-0.385,0.026-0.577,0.026
				c-0.167,0-0.346,0-0.526-0.026c-0.18,0-0.346-0.026-0.513-0.051L975.822,591.249z M970.921,589.466h4.362l-2.181-7.299
				L970.921,589.466z"/>
		</g>
		<g>
			<path fill="#FFFFFF" d="M980.799,584.334c0.141-0.026,0.308-0.038,0.487-0.064c0.192-0.013,0.346-0.026,0.487-0.026
				c0.141,0,0.308,0.013,0.5,0.026s0.346,0.026,0.5,0.064v5.593c0,0.641,0.064,1.167,0.18,1.591
				c0.128,0.423,0.308,0.744,0.539,0.988c0.244,0.244,0.539,0.411,0.872,0.5c0.346,0.103,0.744,0.141,1.206,0.141
				c0.68,0,1.257-0.064,1.732-0.218v-8.582c0.141-0.026,0.308-0.038,0.487-0.064c0.18-0.013,0.346-0.026,0.487-0.026
				c0.141,0,0.308,0.013,0.487,0.026c0.18,0.013,0.346,0.026,0.487,0.064v9.903c-0.462,0.128-1.013,0.257-1.655,0.372
				c-0.641,0.128-1.308,0.18-2.001,0.18c-0.654,0-1.257-0.051-1.847-0.167c-0.577-0.115-1.09-0.346-1.527-0.693
				c-0.436-0.334-0.782-0.821-1.039-1.45s-0.372-1.45-0.372-2.476v-5.683H980.799z"/>
		</g>
		<g>
			<path fill="#FFFFFF" d="M992.729,585.912h-1.552l-0.077-0.282l3.425-3.823h0.167v2.54h2.591c0.051,0.218,0.077,0.475,0.077,0.757
				c0,0.154-0.013,0.295-0.013,0.423c-0.013,0.128-0.038,0.269-0.064,0.398h-2.591v4.657c0,0.564,0.026,1.001,0.064,1.334
				c0.051,0.334,0.128,0.59,0.244,0.77c0.115,0.18,0.269,0.295,0.462,0.359c0.192,0.051,0.436,0.077,0.731,0.077
				c0.231,0,0.436-0.013,0.641-0.039c0.205-0.038,0.385-0.077,0.539-0.103c0.09,0.257,0.154,0.539,0.167,0.821
				c0.013,0.269,0.026,0.526,0.026,0.731c-0.269,0.077-0.552,0.115-0.834,0.154c-0.295,0.039-0.603,0.051-0.936,0.051
				c-0.962,0-1.706-0.244-2.245-0.706c-0.539-0.462-0.795-1.232-0.795-2.309v-5.811H992.729z"/>
		</g>
		<g>
			<path fill="#FFFFFF" d="M999.451,579.947c0.154-0.026,0.308-0.051,0.487-0.064c0.18-0.013,0.346-0.013,0.487-0.013
				s0.308,0,0.5,0.013c0.18,0.013,0.346,0.026,0.487,0.064v5.939c0.128-0.192,0.282-0.385,0.449-0.59
				c0.18-0.218,0.398-0.41,0.654-0.59c0.257-0.18,0.552-0.321,0.898-0.449c0.334-0.103,0.718-0.167,1.116-0.167
				c1.167,0,2.04,0.333,2.604,1.013c0.564,0.667,0.847,1.655,0.847,2.976v6.478c-0.141,0.039-0.308,0.051-0.487,0.051
				c-0.18,0.026-0.346,0.026-0.487,0.026c-0.154,0-0.308,0-0.5-0.026c-0.18,0-0.334-0.013-0.487-0.051v-5.939
				c0-0.937-0.154-1.629-0.462-2.078c-0.308-0.449-0.783-0.667-1.424-0.667c-0.359,0-0.706,0.064-1.039,0.192
				c-0.334,0.128-0.616,0.334-0.872,0.59c-0.257,0.269-0.449,0.629-0.59,1.065c-0.141,0.436-0.231,0.962-0.231,1.591v5.247
				c-0.141,0.038-0.308,0.051-0.487,0.051c-0.192,0.026-0.346,0.026-0.5,0.026c-0.141,0-0.295,0-0.487-0.026
				c-0.18,0-0.346-0.013-0.5-0.051v-14.611H999.451z"/>
		</g>
		<g>
			<path fill="#FFFFFF" d="M1015.127,594.789c-0.795,0-1.501-0.128-2.091-0.398c-0.603-0.269-1.103-0.654-1.501-1.129
				c-0.398-0.475-0.693-1.039-0.885-1.693c-0.192-0.654-0.295-1.36-0.295-2.104c0-0.757,0.103-1.462,0.295-2.117
				c0.192-0.654,0.487-1.219,0.885-1.693c0.398-0.475,0.898-0.859,1.501-1.129c0.59-0.269,1.296-0.423,2.091-0.423
				s1.488,0.141,2.091,0.423c0.603,0.269,1.09,0.654,1.488,1.129c0.411,0.475,0.693,1.039,0.898,1.693
				c0.192,0.654,0.295,1.36,0.295,2.117c0,0.757-0.103,1.462-0.295,2.104c-0.192,0.654-0.487,1.219-0.898,1.693
				c-0.398,0.487-0.885,0.86-1.488,1.129C1016.628,594.661,1015.923,594.789,1015.127,594.789 M1015.127,593.224
				c0.924,0,1.591-0.334,2.027-0.988c0.436-0.667,0.654-1.591,0.654-2.771c0-1.18-0.231-2.104-0.654-2.758
				c-0.436-0.667-1.116-0.988-2.027-0.988c-0.911,0-1.591,0.321-2.027,0.988c-0.436,0.654-0.641,1.578-0.641,2.758
				s0.218,2.104,0.641,2.771C1013.537,592.891,1014.217,593.224,1015.127,593.224"/>
		</g>
		<g>
			<path fill="#FFFFFF" d="M1022.478,584.334c0.141-0.026,0.282-0.038,0.411-0.064c0.128-0.013,0.269-0.026,0.423-0.026
				s0.295,0.013,0.449,0.026c0.141,0.013,0.269,0.026,0.385,0.064c0.038,0.192,0.09,0.462,0.128,0.783
				c0.038,0.321,0.064,0.603,0.064,0.834c0.269-0.449,0.641-0.847,1.09-1.18c0.462-0.334,1.052-0.5,1.77-0.5
				c0.103,0,0.218,0,0.334,0.013c0.115,0.013,0.205,0.013,0.282,0.026c0.026,0.115,0.051,0.244,0.064,0.385
				c0.013,0.128,0.026,0.269,0.026,0.411c0,0.167-0.013,0.334-0.038,0.513c-0.013,0.167-0.039,0.334-0.064,0.487
				c-0.103-0.026-0.218-0.039-0.333-0.039h-0.269c-0.359,0-0.706,0.051-1.026,0.141c-0.321,0.103-0.616,0.282-0.872,0.526
				c-0.257,0.257-0.462,0.59-0.616,1.039c-0.154,0.436-0.231,1.001-0.231,1.68v5.08c-0.141,0.026-0.308,0.051-0.487,0.051
				c-0.18,0.026-0.346,0.026-0.487,0.026c-0.154,0-0.308,0-0.487-0.026c-0.18,0-0.359-0.026-0.513-0.051V584.334z"/>
		</g>
		<g>
			<path fill="#FFFFFF" d="M1030.483,585.887h-1.296c-0.026-0.103-0.051-0.231-0.064-0.372c-0.013-0.141-0.026-0.269-0.026-0.41
				s0.013-0.269,0.026-0.411s0.038-0.269,0.064-0.372h3.233v10.211c-0.154,0.039-0.308,0.051-0.488,0.051
				c-0.192,0.026-0.346,0.026-0.487,0.026c-0.128,0-0.295,0-0.475-0.026c-0.18,0-0.333-0.013-0.487-0.051V585.887L1030.483,585.887z
				 M1030.047,582.089c-0.026-0.154-0.051-0.334-0.051-0.513c0-0.18,0-0.359,0-0.5c0-0.154,0-0.321,0-0.5
				c0-0.192,0.026-0.359,0.051-0.5c0.18-0.026,0.359-0.038,0.564-0.051c0.205-0.013,0.372-0.026,0.513-0.026
				c0.141,0,0.321,0.013,0.513,0.026c0.192,0.013,0.385,0.026,0.539,0.051c0.026,0.141,0.038,0.308,0.038,0.5
				c0.013,0.192,0.013,0.359,0.013,0.5s0,0.308-0.013,0.5c-0.013,0.18-0.026,0.359-0.038,0.513
				c-0.154,0.026-0.334,0.039-0.526,0.051s-0.359,0.026-0.5,0.026c-0.167,0-0.334-0.013-0.539-0.026
				C1030.406,582.128,1030.226,582.115,1030.047,582.089"/>
		</g>
		<g>
			<path fill="#FFFFFF" d="M1036.012,585.912h-1.565l-0.077-0.282l3.425-3.823h0.154v2.54h2.591
				c0.051,0.218,0.077,0.475,0.077,0.757c0,0.154-0.013,0.295-0.026,0.423c-0.013,0.128-0.039,0.269-0.064,0.398h-2.591v4.657
				c0,0.564,0.026,1.001,0.077,1.334c0.038,0.334,0.128,0.59,0.231,0.77c0.115,0.18,0.269,0.295,0.462,0.359
				c0.192,0.051,0.436,0.077,0.731,0.077c0.231,0,0.436-0.013,0.641-0.039c0.192-0.038,0.372-0.077,0.539-0.103
				c0.09,0.257,0.154,0.539,0.167,0.821c0.026,0.269,0.026,0.526,0.026,0.731c-0.269,0.077-0.552,0.115-0.834,0.154
				c-0.295,0.039-0.603,0.051-0.937,0.051c-0.949,0-1.706-0.244-2.245-0.706c-0.526-0.462-0.795-1.232-0.795-2.309v-5.811H1036.012z
				"/>
		</g>
		<g>
			<path fill="#FFFFFF" d="M1046.249,594.571c-0.115,0-0.218,0-0.334,0.026c-0.115,0-0.218,0-0.333,0c-0.141,0-0.269,0-0.411,0
				c-0.154-0.013-0.269-0.026-0.359-0.038l-3.387-10.211c0.167-0.026,0.346-0.039,0.539-0.051c0.18,0,0.359-0.013,0.513-0.013
				c0.167,0,0.359,0,0.577,0.013c0.218,0.013,0.398,0.026,0.539,0.051l2.822,9.493l2.938-9.493c0.282-0.039,0.603-0.064,0.975-0.064
				c0.154,0,0.308,0,0.5,0.013c0.192,0.013,0.372,0.026,0.552,0.051l-3.964,12.289c-0.18,0.552-0.372,1.001-0.577,1.385
				c-0.205,0.372-0.423,0.667-0.68,0.885c-0.257,0.231-0.539,0.385-0.847,0.475s-0.68,0.141-1.078,0.141
				c-0.308,0-0.616-0.026-0.911-0.064c-0.308-0.051-0.564-0.103-0.795-0.18c0-0.308,0.039-0.577,0.09-0.821
				c0.051-0.231,0.128-0.475,0.231-0.718c0.128,0.051,0.282,0.077,0.488,0.141c0.205,0.039,0.423,0.064,0.667,0.064
				c0.18,0,0.334-0.013,0.488-0.051c0.154-0.039,0.295-0.103,0.423-0.192c0.141-0.103,0.257-0.244,0.372-0.436
				c0.115-0.192,0.218-0.436,0.334-0.757L1046.249,594.571z"/>
		</g>
	</g>
</g>
</svg>
