<?xml version="1.0" encoding="utf-8"?>
<!-- Generator: Adobe Illustrator 17.0.0, SVG Export Plug-In . SVG Version: 6.00 Build 0)  -->
<!DOCTYPE svg PUBLIC "-//W3C//DTD SVG 1.1//EN" "http://www.w3.org/Graphics/SVG/1.1/DTD/svg11.dtd">
<svg version="1.1" id="Layer_1" xmlns="http://www.w3.org/2000/svg" xmlns:xlink="http://www.w3.org/1999/xlink" x="0px" y="0px"
	 width="40.326px" height="40px" viewBox="0 0 40.326 40" enable-background="new 0 0 40.326 40" xml:space="preserve">
<g>
	<g>
		<path fill="#003366" d="M40.326,38.46V22.945c0-0.634-0.387-1.202-0.977-1.435L24.63,15.748V1.541c0-0.849-0.691-1.54-1.54-1.54
			H1.541C0.691,0,0,0.691,0,1.541V38.46C0,39.309,0.691,40,1.541,40h7.165v-3.116c0-1.994,1.615-3.614,3.614-3.614l0,0
			c1.994,0,3.614,1.615,3.614,3.614V40h8.706h14.155C39.635,40,40.326,39.313,40.326,38.46z M9.446,30.128H4.741v-4.036
			c0-1.298,1.052-2.35,2.35-2.35s2.35,1.052,2.35,2.35v4.036H9.446z M9.446,20.445H4.741v-4.036c0-1.298,1.052-2.35,2.35-2.35
			s2.35,1.052,2.35,2.35v4.036L9.446,20.445L9.446,20.445z M9.446,10.757H4.741V6.721c0-1.298,1.052-2.35,2.35-2.35
			s2.35,1.052,2.35,2.35v4.036H9.446z M19.89,30.128h-4.705v-4.036c0-1.298,1.052-2.35,2.35-2.35s2.35,1.052,2.35,2.35v4.036H19.89z
			 M19.89,20.445h-4.705v-4.036c0-1.298,1.052-2.35,2.35-2.35s2.35,1.052,2.35,2.35v4.036L19.89,20.445L19.89,20.445z M19.89,10.757
			h-4.705V6.721c0-1.298,1.052-2.35,2.35-2.35s2.35,1.052,2.35,2.35v4.036H19.89z M36.778,32.355h-8.596V21.232l8.596,3.367V32.355z
			"/>
		<path fill="#003366" d="M26.413,0v11.756h11.756c0.85,0,1.54-0.691,1.54-1.54V1.54c0-0.849-0.691-1.54-1.54-1.54
			C38.169,0,26.413,0,26.413,0z M36.25,9.071c0,0.484-0.396,0.88-0.88,0.88h-0.207c-0.484,0-0.88-0.396-0.88-0.88V6.646H31.73v2.425
			c0,0.484-0.396,0.88-0.88,0.88h-0.207c-0.484,0-0.88-0.396-0.88-0.88V2.83c0-0.484,0.396-0.88,0.88-0.88h0.207
			c0.484,0,0.88,0.396,0.88,0.88v2.095h2.553V2.83c0-0.484,0.396-0.88,0.88-0.88h0.207c0.484,0,0.88,0.396,0.88,0.88L36.25,9.071
			L36.25,9.071z"/>
	</g>
</g>
</svg>
