<?xml version="1.0" encoding="iso-8859-1"?>
<!-- Generator: Adobe Illustrator 19.0.0, SVG Export Plug-In . SVG Version: 6.00 Build 0)  -->
<svg version="1.1" id="Capa_1" xmlns="http://www.w3.org/2000/svg" xmlns:xlink="http://www.w3.org/1999/xlink" x="0px" y="0px"
	 viewBox="0 0 512 512" style="enable-background:new 0 0 512 512;" xml:space="preserve">
<g transform="translate(0 -1)">
	<g>
		<g>
			<path fill="#ffffff" d="M503.467,436.203c4.713,0,8.533-3.82,8.533-8.533s-3.82-8.533-8.533-8.533h-8.533v-25.6h8.533
				c4.713,0,8.533-3.82,8.533-8.533s-3.82-8.533-8.533-8.533h-8.533c0-4.713-3.82-8.533-8.533-8.533s-8.533,3.82-8.533,8.533
				H341.333c0-4.713-3.821-8.533-8.533-8.533c-4.713,0-8.533,3.82-8.533,8.533h-8.533c-4.713,0-8.533,3.82-8.533,8.533
				s3.82,8.533,8.533,8.533h8.533v25.6h-8.533c-4.713,0-8.533,3.82-8.533,8.533s3.82,8.533,8.533,8.533h8.533v8.533h-8.533
				c-4.713,0-8.533,3.82-8.533,8.533s3.82,8.533,8.533,8.533h8.533v25.6h-153.6v-73.387c-6.806-5.812-12.577-12.737-17.067-20.48
				c-4.49,7.743-10.26,14.668-17.067,20.48v73.387h-128c-4.713,0-8.533,3.82-8.533,8.533s3.82,8.533,8.533,8.533h494.933
				c4.713,0,8.533-3.82,8.533-8.533s-3.82-8.533-8.533-8.533h-8.533v-25.6h8.533c4.713,0,8.533-3.82,8.533-8.533
				s-3.82-8.533-8.533-8.533h-8.533v-8.533H503.467z M477.867,487.403H341.333v-25.6h136.533V487.403z M477.867,444.737H341.333
				v-8.533h136.533V444.737z M477.867,419.137H341.333v-25.6h136.533V419.137z"/>
			<path fill="#ffffff" d="M42.667,111.937h46.763c-0.085-1.024-0.171-1.963-0.171-2.987c-0.175-29.085,18.771-54.833,46.592-63.317
				c-3.386-22.014-23.167-37.697-45.373-35.973C68.272,11.383,51.148,29.931,51.2,52.203c-0.014,4.707-3.826,8.519-8.533,8.533
				c-14.138,0-25.6,11.461-25.6,25.6S28.528,111.937,42.667,111.937z"/>
			<path fill="#ffffff" d="M366.933,188.737h102.4c14.138,0,25.6-11.461,25.6-25.6c0-14.139-11.461-25.6-25.6-25.6
				c-4.707-0.014-8.519-3.826-8.533-8.533c0-23.564-19.103-42.667-42.667-42.667s-42.667,19.103-42.667,42.667
				c-0.014,4.707-3.826,8.519-8.533,8.533c-14.138,0-25.6,11.461-25.6,25.6C341.333,177.275,352.795,188.737,366.933,188.737z"/>
			<path fill="#ffffff" d="M86.613,410.603c23.277-0.041,44.939-11.901,57.515-31.488l-56.32-56.32c-3.323-3.35-3.312-8.756,0.025-12.093
				c3.336-3.336,8.743-3.348,12.093-0.025l45.141,45.227v-86.869l-40.192-40.107c-2.179-2.162-3.036-5.324-2.245-8.29
				s3.107-5.283,6.073-6.073s6.128,0.066,8.29,2.245l28.075,28.16v-39.168c0-4.713,3.821-8.533,8.533-8.533
				c4.713,0,8.533,3.82,8.533,8.533v39.168l28.075-28.16c2.162-2.179,5.324-3.036,8.29-2.245s5.283,3.107,6.073,6.073
				s-0.066,6.128-2.245,8.29l-40.192,40.107v86.869l45.141-45.227c3.35-3.323,8.756-3.312,12.093,0.025
				c3.336,3.336,3.348,8.743,0.025,12.093l-56.32,56.32c12.576,19.587,34.238,31.447,57.515,31.488
				c39.014-0.71,70.108-32.835,69.547-71.851c0-0.853,0-1.792-0.085-2.645c-0.644-23.49-12.718-45.185-32.341-58.112
				c-4.967-3.236-10.33-5.817-15.957-7.68c-2.827-0.965-4.956-3.32-5.632-6.229c-0.687-2.893,0.186-5.934,2.304-8.021
				c11.63-11.363,18.21-26.92,18.261-43.179v-0.512c0.321-28.793-19.894-53.739-48.128-59.392c-3.399-0.687-6.858-1.03-10.325-1.024
				c-3.265,0.019-6.265-1.794-7.765-4.693c-1.479-2.837-1.248-6.262,0.597-8.875c5.647-7.537,8.996-16.546,9.643-25.941
				c0.144-1.16,0.201-2.33,0.171-3.499c0.397-26.537-20.74-48.398-47.275-48.896c-26.535,0.498-47.672,22.359-47.275,48.896
				c-0.03,1.169,0.027,2.338,0.171,3.499c0.647,9.396,3.995,18.404,9.643,25.941c1.874,2.628,2.137,6.078,0.683,8.96
				c-1.661,3.11-5.022,4.925-8.533,4.608c-3.239-0.034-6.472,0.28-9.643,0.939c-28.27,5.653-48.497,30.65-48.128,59.477v0.512
				c0.052,16.259,6.631,31.816,18.261,43.179c2.117,2.087,2.991,5.128,2.304,8.021c-0.676,2.909-2.805,5.264-5.632,6.229
				c-5.627,1.863-10.991,4.444-15.957,7.68c-19.623,12.927-31.697,34.622-32.341,58.112c-0.085,0.853-0.085,1.792-0.085,2.645
				C16.505,377.768,47.6,409.893,86.613,410.603z"/>
		</g>
	</g>
</g>
<g>
</g>
<g>
</g>
<g>
</g>
<g>
</g>
<g>
</g>
<g>
</g>
<g>
</g>
<g>
</g>
<g>
</g>
<g>
</g>
<g>
</g>
<g>
</g>
<g>
</g>
<g>
</g>
<g>
</g>
</svg>
