<?xml version="1.0" encoding="UTF-8"?>
<svg width="42px" height="42px" viewBox="0 0 42 42" version="1.1" xmlns="http://www.w3.org/2000/svg" xmlns:xlink="http://www.w3.org/1999/xlink">
    <!-- Generator: Sketch 52.3 (67297) - http://www.bohemiancoding.com/sketch -->
    <title>world-map1</title>
    <desc>Created with Sketch.</desc>
    <g id="Page-1" stroke="none" stroke-width="1" fill="none" fill-rule="evenodd">
        <g id="world-map1" fill="#ff9e2a">
            <path d="M13.8773596,34.5157189 C13.8335457,34.4878586 13.1015956,33.8688754 12.9198968,33.6496269 C12.7420638,33.4279558 12.3992844,33.3698125 12.2201628,33.2813863 C12.0397526,33.1941715 10.8490451,32.8247196 10.562966,33.0161078 C10.2807528,33.207496 9.89158218,33.3237825 9.74081077,33.0161078 C9.59261666,32.7060105 9.51787528,32.6624031 9.30911487,32.6187956 C9.10035446,32.5751882 9.20473466,32.3414039 9.19055957,32.1354799 C9.17380719,31.9283446 9.0552519,31.7078849 8.90576913,31.8556656 C8.75628637,32.0034463 8.24856044,32.3862227 8.1751077,32.1924119 C8.10036632,32.002235 7.7408345,31.208822 8.2794879,31.05983 C8.81556402,30.9144719 9.26401231,31.0004754 9.39931998,31.1337203 C9.53333901,31.2645426 9.63643057,31.6339945 9.80266571,31.5891757 C9.96761221,31.544357 9.87740709,31.2633313 9.93668474,31.0307583 C9.99596239,30.7969741 10.3864217,30.4868768 10.562966,30.1646663 C10.7420876,29.8388219 10.7717264,29.648645 10.9946619,29.5602188 C11.2214633,29.473004 11.3400186,29.3555062 11.548779,29.2077254 C11.7588281,29.0599447 12.0848551,28.9291224 12.2072764,28.8540207 C12.3271203,28.778919 12.8631964,28.5293876 13.0410294,28.5742064 C13.2201509,28.6190251 13.3387062,28.5596705 13.1905121,28.3101391 C13.0410294,28.0606077 12.8477327,27.3095908 12.5642309,26.9728446 C12.2807291,26.6360983 12.2498016,26.5452495 12.1157826,26.2242503 C11.9817636,25.8984059 11.8309922,25.6198029 11.726612,25.8402627 C11.6222318,26.0607224 11.3992963,26.3550726 11.2794523,26.0752583 C11.160897,25.7954439 11.1750721,25.8087684 11.0255893,25.6779461 C10.8773952,25.5459125 10.7562626,25.5156296 10.5487909,25.456275 C10.3400305,25.3969204 10.1312701,25.4720221 10.1454451,25.662199 C10.1596202,25.8535871 9.94957118,26.1939674 10.0861675,26.4447101 C10.2201865,26.6954528 10.3400305,26.9595201 10.1596202,27.0479462 C9.9817873,27.1351611 10.1596202,27.6657182 9.9817873,27.6499711 C9.80266571,27.6366466 9.71374924,27.6657182 9.71374924,27.4731187 C9.71374924,27.2841532 9.80266571,26.989803 9.47277272,26.989803 C9.14545701,26.989803 8.95087169,26.8286978 8.71247246,26.6651699 C8.47278458,26.5040647 8.2794879,26.5912795 8.33876555,26.2254616 C8.3980432,25.8560098 8.31041537,25.7251875 8.57716479,25.5192635 C8.84649149,25.3145508 8.90705778,25.1946304 9.10035446,25.2842679 C9.29493978,25.3726941 9.42767016,25.3726941 9.55009139,25.2697321 C9.66864668,25.1667701 9.89158218,25.2091662 9.89158218,25.0783439 C9.89158218,24.9463103 9.63771921,24.9463103 9.66864668,24.7270618 C9.69699686,24.5029681 9.81812945,24.6228885 9.86194336,24.254648 C9.90575727,23.8864075 9.57844157,23.3279901 9.24983722,23.4018804 C8.91994422,23.4745595 8.41479558,23.9021546 8.31041537,23.7095551 C8.20474652,23.5193782 7.99598611,23.6065931 7.59264038,23.739838 C7.18929465,23.873083 5.51792273,23.6090157 5.39936743,23.4745595 C5.39936743,23.4745595 5.114577,23.2843826 4.96509424,23.3873446 C4.81690012,23.4903066 4.21896907,23.4454879 4.03984748,23.4176276 C3.85943725,23.3873446 3.6957794,23.6078044 3.47413254,23.5351254 C3.24733111,23.461235 2.45739203,23.3134543 2.27955908,23.1959564 C2.09786021,23.0772473 1.82853351,23.0772473 1.7125555,23.0191041 C1.59271156,22.9597495 1.15843836,22.9306779 1.07081054,23.0481757 C0.980605423,23.1656735 0.652001074,23.3703862 0.487054577,23.5181669 C0.323396725,23.6659477 0.131388693,23.636876 0.293757901,23.945762 C0.457415753,24.254648 -0.123762919,24.4460362 0.0244311991,24.7827824 C0.172625317,25.1195287 -0.00520762453,26.0316508 0.591434782,26.2085032 C1.18936583,26.3853555 1.68162803,26.4883175 2.02440747,26.2254616 C2.3697642,25.9589718 2.89166523,25.9589718 3.05532308,26.2533219 C3.21898093,26.5476721 3.30918605,26.9885917 3.84526216,27.2381231 C4.38133827,27.4888658 4.8452503,28.2095998 4.81561147,28.5305989 C4.78726129,28.855232 4.83236385,29.9272481 5.38132641,30.54502 C5.93544355,31.162792 6.50244713,32.2820494 6.5449724,32.0155595 C6.59007496,31.750281 6.59007496,31.4850024 6.71120754,31.6776019 C6.82847419,31.8689901 7.14290345,32.4576904 7.65062939,32.5606524 C8.15964397,32.6636144 8.41350693,32.692686 8.60551497,32.8707497 C8.79881164,33.0476021 8.96504678,33.1493527 9.17251855,33.2389902 C9.38127896,33.3262051 9.88900489,33.592695 9.9933851,33.768336 C10.0990539,33.9451884 10.0539514,34.180184 9.94828254,34.4454625 C9.84519098,34.7107411 9.72534704,34.9748083 9.87354116,35.225551 C10.0243126,35.4750824 10.3374532,36.1958164 10.5926048,36.3569216 C10.8464678,36.5204495 11.0977534,36.7845167 11.0384758,37.1515459 C10.9791981,37.5185751 10.6956964,39.0920766 10.7253352,39.4457813 C10.7562626,39.7970634 10.3838444,40.958717 10.6815213,41.4299195 C10.9791981,41.8999107 11.4895014,42.0476914 11.7124369,41.9871256 C11.9353724,41.9301936 11.7575394,41.9132352 11.6518706,41.6939867 C11.5474904,41.4723156 11.5616655,41.1925012 11.6815094,40.9877886 C11.802642,40.7818646 11.802642,40.6643668 11.7420757,40.4293712 C11.6815094,40.1943756 11.7124369,40.0611307 11.860631,39.8854896 C12.0114024,39.7086372 12.6376836,39.238646 12.8322689,39.0327221 C13.024277,38.8267981 14.2510665,37.4144018 14.4147244,37.296904 C14.5783823,37.1794062 14.9508005,36.8995919 15.0719331,36.4598836 C15.191777,36.0201753 15.6234729,35.1516606 15.3257961,34.9299895 C15.0268305,34.7083184 13.9224622,34.5447905 13.8773596,34.5157189 Z" id="Path"></path>
            <path d="M17.5627871,22.1008002 C17.6552744,21.9532323 17.8794862,21.5837405 18,21.3812636 L12.8571429,21.3812636 C12.9188011,21.6043314 13.1416115,22.432542 13.0995718,22.7677156 C13.0505255,23.1566543 13.1976645,23.0182379 13.3265862,23.1715254 C13.4569093,23.324813 13.4246789,23.5616081 13.3434021,23.7400623 C13.260724,23.9208044 13.213079,24.3246142 13.4751265,24.7970603 C13.73297,25.2683625 14.0412612,25.8654977 14.300506,25.8940962 C14.5625535,25.9204067 14.4966913,26.2269819 14.6760607,26.1148761 C14.8540288,26.0027702 14.8848579,25.7556798 15.0333982,25.3930516 C15.1791359,25.0338553 15.1791359,24.7684619 15.5532892,24.5877198 C15.9274426,24.4069777 16.964422,23.8247136 17.1914364,23.6153731 C17.4198521,23.4060326 17.6790969,23.3236691 17.5978202,22.9633289 C17.5137408,22.6018447 17.4338653,22.3101407 17.5627871,22.1008002 Z" id="Path"></path>
            <path d="M41.3337132,23.7260026 C41.1452623,23.6066659 40.0159128,22.7860725 39.5278386,22.8906459 C39.0438317,22.9952193 38.1788557,22.6507423 38.0365007,22.5769258 C37.8955015,22.501879 36.7349695,22.1783167 36.1221652,22.1586323 C35.8171188,22.1487901 34.535924,21.8892021 34.0017539,21.6812857 C33.466228,21.4709086 33.0134036,20.4411685 31.9925151,20.6060254 C31.8610062,20.6281703 30.627263,20.7856455 30.3127263,21.0403124 C30.0009011,21.2949793 29.8571904,21.5914756 29.6850086,21.6517591 C29.5128269,21.7120425 29.0098393,21.6812857 29.0098393,21.906426 C29.0098393,22.130336 29.1833768,22.8180597 28.9800126,22.6827294 C28.7752925,22.5486295 28.5705725,22.2349094 28.4783807,22.474813 C28.3848332,22.7147166 28.2234975,22.8475863 28.1313057,22.7577762 C28.0391139,22.6679661 27.5645973,22.7577762 27.5035881,22.9066395 C27.4398673,23.056733 26.8284187,23.3987495 26.5626894,23.4454999 C26.2956044,23.4897898 26.1844319,23.6091265 26.0434327,23.6694099 C25.9024335,23.7284631 24.8327375,24.1775135 24.630729,24.0126566 C24.426009,23.8490301 24.363644,23.9536034 24.2375581,23.98313 C24.2375581,23.98313 23.8606564,23.9228466 23.6261096,23.6546466 C23.3888513,23.3864467 23.3427554,23.4750265 23.0756704,23.2215899 C22.8099411,22.9681532 22.7462203,22.7147166 22.480491,22.81929 C22.2147617,22.9226331 21.0840564,23.9818998 20.6434339,24.4604767 C20.2055228,24.9390537 19.419181,25.4311636 19.8109962,25.7731801 C20.2055228,26.1164268 20.4075313,26.0721369 20.4563387,26.26529 C20.5051462,26.4584432 20.5512421,26.6688202 20.6136071,26.743867 C20.6759721,26.820144 21.0515181,27.0871137 21.2413248,26.7291037 C21.4324872,26.3698634 21.4609582,26.1164268 21.6805916,26.1767102 C21.900225,26.2357634 21.9463209,26.3710937 21.8351484,26.6392936 C21.7253317,26.9099541 21.6480533,27.3270173 21.2711515,27.3110237 C20.8956055,27.2962604 20.4875213,27.0871137 20.3600797,27.1326338 C20.2353496,27.1769237 20.1594269,27.2814971 20.0157162,27.3860705 C19.874717,27.4906438 19.4340944,27.9815235 19.1358268,28.0578006 C18.838915,28.1328474 18.4782824,28.0713336 18.6816467,28.2952436 C18.8850109,28.5191537 19.1832785,29.0124939 18.9012801,28.9965004 C18.6192816,28.9817371 18.1474766,28.9374472 18.116294,29.1908838 C18.0851115,29.4443204 17.9603814,29.594414 18.0227465,29.7728038 C18.0851115,29.952424 18.2898315,30.2969009 18.5392917,30.176334 C18.7941749,30.0557671 19.2795376,29.9388909 19.4042677,29.6682305 C19.5303535,29.3988003 19.6727085,29.102304 19.9858894,29.1170673 C20.2990704,29.1318306 21.0542297,29.5046039 21.0054222,29.6399341 C20.9593263,29.7728038 20.8034137,30.0877542 20.9905089,29.9831808 C21.1789597,29.8773772 21.3348723,29.7580405 21.444689,29.7137506 C21.5545057,29.6682305 21.6995722,29.8638442 21.7443124,29.9388909 C21.7904083,30.015168 22.1063007,30.162801 22.16731,29.9216671 C22.2310308,29.684224 22.2933958,29.8638442 22.480491,29.9388909 C22.6702976,30.015168 23.2342945,30.0717606 23.3102171,30.1320441 C23.3915628,30.1923276 23.5637446,30.3707174 23.3427554,30.610621 C23.123122,30.8480641 22.8709503,30.9403347 22.5103177,30.7607146 C22.1483293,30.5810945 21.7551585,30.9108081 21.3511415,30.7299577 C20.9403457,30.5515679 21.1301523,30.2981312 20.6434339,30.1185111 C20.1594269,29.9388909 19.0585484,30.162801 18.7114734,30.252611 C18.3657542,30.3411908 18.3508408,30.3719477 18.2098416,30.520811 C18.0688424,30.6709045 17.1428571,31.6403612 17.1428571,32.1927546 C17.1428571,32.7439178 17.4872206,34.2399321 18.6016567,34.0898385 C19.7174486,33.939745 20.3926179,34.0283248 20.2678879,34.3260513 C20.1404463,34.6262384 20.2055228,34.7012852 20.4088871,35.0433016 C20.6122513,35.3865483 21.0854122,37.6723991 21.1626906,38.0439421 C21.2440363,38.4179457 21.1016813,38.8940621 21.6195823,38.8202456 C22.1401948,38.7451988 22.6879225,38.6270924 22.9062001,38.1940357 C23.1271893,37.7597486 23.1610833,37.2688689 23.4430818,37.0154323 C23.726436,36.7607654 24.0707994,36.7607654 24.1006262,36.4027554 C24.130453,36.0435151 24.021992,35.1933951 24.2104429,34.9965511 C24.4002495,34.8046283 25.2774274,33.9065276 25.3709749,33.5485176 C25.4658782,33.1905076 25.5906083,33.1006975 25.2299757,33.1006975 C24.8693431,33.1006975 24.2565388,33.0576379 24.0816455,32.7586811 C23.9094638,32.4634151 23.5000238,31.8962583 23.5000238,31.7621584 C23.5000238,31.6292887 23.7521954,31.6428217 23.8755698,31.9257849 C24.0030114,32.2087482 24.4395666,33.062559 24.9425542,32.8804783 C25.4455418,32.7008581 26.1532494,32.4929417 26.1681628,32.2087482 C26.1830762,31.9257849 25.9485294,31.5973015 25.6963577,31.6132951 C25.4428303,31.6292887 25.177101,31.4632016 25.177101,31.299575 C25.177101,31.1359484 25.2231969,31.1962319 25.5228202,31.299575 C25.8224436,31.4041484 25.9146354,31.5825382 26.371527,31.6132951 C26.827063,31.6428217 27.344964,32.0463519 27.5944241,32.225972 C27.8465958,32.4055922 28.2845068,33.630946 28.3956793,33.7490524 C28.5041402,33.8696193 28.6342933,33.8696193 28.7427543,33.6297157 C28.852571,33.3898121 29.3230203,32.6295022 29.5914611,32.4191252 C29.8571904,32.2099784 29.8734595,31.9270152 30.0280164,32.1066354 C30.1852847,32.2862555 30.860454,32.7328453 30.9079057,33.0022755 C30.9553574,33.2717057 30.8767232,33.8536257 31.0177224,33.6740056 C31.1587216,33.4943855 31.2698941,33.1228424 31.3919126,33.2876993 C31.5193542,33.4525561 31.5193542,33.7059928 31.816266,33.5116093 C32.1158894,33.3196864 32.6337904,33.2434094 32.3517919,32.8251159 C32.0697935,32.4068224 32.2582444,32.1533858 32.4331376,32.1373922 C32.6053194,32.1213987 33.7834763,31.9282455 33.8146588,31.3450952 C33.8458413,30.7631751 33.4052188,30.449455 33.6140061,30.1504982 C33.8146588,29.8515414 34.1142821,29.5833415 34.1780029,29.7617314 C34.240368,29.9413515 34.0207346,30.5232715 34.302733,30.4334615 C34.5860872,30.3448817 34.9155373,30.3448817 34.9155373,30.1640313 C34.9155373,29.9831808 34.8518165,29.5353608 34.9792581,29.4172544 C35.1053439,29.2979177 36.0299734,28.5080812 36.1397901,28.1943611 C36.2496068,27.8794107 36.4543268,27.6112108 36.2807893,27.3737677 C36.1072518,27.1350944 35.81034,27.2076806 36.0448868,26.9111844 C36.2807893,26.6122276 36.6739602,26.3354157 36.9722278,26.3132707 C37.9253283,26.2369937 37.6568875,27.3073329 37.6731566,27.5460062 C37.6907815,27.7846796 37.6907815,28.3825932 37.830425,28.0836364 C37.9714242,27.7859098 38.1354713,27.4180576 38.4188255,27.164621 C38.7021797,26.9124146 38.8580923,26.7463275 38.8757172,26.5236478 C38.8919864,26.2997377 38.9041882,26.224691 39.1739848,26.1053543 C39.4410699,25.9847873 40.617871,25.5664939 40.7276877,25.2847609 C40.8375044,25.0017977 40.5866885,24.7459005 40.8686869,24.7631243 C41.1506854,24.7766574 41.4177704,25.0596206 41.5601254,24.9107573 C41.7011246,24.7631243 42.0156613,24.4936941 41.9993922,24.3436006 C41.9804115,24.188586 41.5248756,23.8453393 41.3337132,23.7260026 Z" id="Path"></path>
            <path d="M36.4753208,28.8247793 C36.3885822,29.0106491 36.346452,29.0398739 36.2175833,29.4233034 C36.0862363,29.804395 36.1296055,29.7050306 35.9994977,29.9458431 C35.8706289,30.1878246 35.6574998,30.2147114 35.4418924,30.3725254 C35.2238068,30.5291704 35.1668071,30.8401224 35.1668071,30.8401224 C34.9809387,31.0809349 35.9276285,30.4987766 36.2572352,30.3152447 C36.588081,30.1305439 36.5025815,29.9177873 36.5310813,29.6196942 C36.5595812,29.3204321 36.648798,29.2783484 36.7888189,29.1509282 C36.931318,29.023508 36.8173187,28.7674986 36.7491669,28.5839668 C36.6748196,28.400435 36.5595812,28.6424164 36.4753208,28.8247793 Z" id="Path"></path>
            <path d="M34.09254,35.6369463 C34.1986607,35.5654736 34.1213629,35.413306 34.2877497,35.43982 C34.4554466,35.4674869 34.6061118,35.5539457 34.806562,35.455959 C35.0017717,35.3568195 35.1694686,35.3983198 35.1393356,35.2311659 C35.1105127,35.0640121 35.1393356,34.8403718 35.0947911,34.7008848 C35.0489365,34.560245 34.776429,34.517592 34.578599,34.673218 C34.3807691,34.8288439 34.1095717,35.0663177 34.1095717,34.9810116 C34.1095717,34.8980111 34.2287937,34.673218 34.1685276,34.533731 C34.1095717,34.394244 34.1986607,34.2685904 33.8960202,34.3792578 C33.5920695,34.4922307 33.4256827,34.4634111 33.319562,34.6178843 C33.2147514,34.7735103 33.091599,35.037498 32.9108008,34.8703442 C32.7300025,34.7031904 32.1967787,34.3538965 32.1967787,34.3538965 C32.1535444,34.3112435 31.5469532,33.8766435 31.7591946,34.1717565 C31.9701258,34.4657167 32.2897981,34.9694837 32.4417734,35.150471 C32.5911285,35.332611 32.7588254,35.5435707 32.9422439,35.4455839 C33.1243523,35.3464444 33.1544853,35.3199304 33.3981699,35.4455839 C33.6353039,35.5666264 33.9864193,35.7072661 34.09254,35.6369463 Z" id="Path"></path>
            <path d="M37.3960777,35.5350711 C37.1625557,35.3812236 37.2603825,35.2464088 36.9795248,35.1718641 C36.6986672,35.0973195 36.4693527,35.1718641 36.3936158,35.0957334 C36.3199827,35.0180166 35.9560249,34.8261038 36.0044124,35.0957334 C36.0538517,35.3669491 36.3820449,35.4414938 36.4672489,35.5176245 C36.5524529,35.5953413 36.3452284,35.7698075 36.5019617,35.9030363 C36.6597469,36.036265 36.7712484,36.288448 36.977421,36.2107312 C37.1846456,36.1314284 37.2582787,36.3074807 37.4265829,36.3455461 C37.5980428,36.3820254 37.7684508,36.3074807 37.6979734,36.1885264 C37.6243403,36.0759164 37.5770048,35.9188968 37.5885757,35.7856681 C37.6011985,35.6508532 37.6264441,35.6905047 37.3960777,35.5350711 Z" id="Path"></path>
            <path d="M37.5357636,36.379038 C37.4209663,36.0479005 37.1417679,35.438771 37.0779917,35.7344782 C37.0113809,36.031548 36.5691987,36.2454928 36.4019631,36.2291404 C36.2517346,36.2127879 36.3367696,36.064253 36.3367696,35.9293451 C36.3367696,35.7971626 36.2503173,35.6663429 35.8761632,35.7658204 C35.49634,35.8639352 35.4183912,36.2114252 35.3163492,36.1800829 C35.2199762,36.147378 34.9549503,36.0806054 34.7933837,36.263208 C34.6289827,36.4458106 34.4787541,36.7933005 34.2845908,36.8600731 C34.0861757,36.9268457 33.4285714,37.0072454 33.4285714,37.2743357 C33.4285714,37.5387006 33.5943897,37.935248 33.5773827,38.1505555 C33.5603757,38.365863 33.2613359,38.8605252 33.6595833,39.0117856 C33.8891779,39.097636 34.0521617,39.1099004 34.3186048,38.9790806 C34.5807961,38.8468982 35.7117621,38.4994082 35.8619907,38.6138755 C36.0093847,38.7297055 36.2474828,39.0008839 36.3537766,39.0594803 C36.5621125,39.1793984 36.6188025,39.4560276 36.8980008,39.5228002 C37.1729475,39.5895728 37.3897868,39.620915 37.5031668,39.620915 C37.6193814,39.620915 38.0275496,39.4887326 38.1267571,39.2570726 C38.2259646,39.0240499 38.4059555,38.4789676 38.488156,38.2146027 C38.5746083,37.9502378 38.6511398,37.6531679 38.4059555,37.4201452 C38.1607711,37.1898479 37.6505609,36.7101755 37.5357636,36.379038 Z" id="Path"></path>
            <g id="pin1" transform="translate(13.714286, 0.000000)" fill-rule="nonzero">
                <path d="M12.4385595,1.9429952 C11.0623844,0.690097103 9.23255014,0 7.28645152,0 C5.33997295,0 3.51051866,0.690097103 2.13434349,1.9429952 C-0.412454448,4.26130637 -0.72895194,8.62327352 1.44891555,11.2660514 L7.28645152,18.9411765 L13.1152487,11.2767747 C15.301855,8.62327352 14.9853575,4.26130637 12.4385595,1.9429952 Z M7.35370249,8.9937467 C5.88747942,8.9937467 4.6940597,7.90723292 4.6940597,6.57235336 C4.6940597,5.2374738 5.88747942,4.15096002 7.35370249,4.15096002 C8.81992556,4.15096002 10.0133453,5.2374738 10.0133453,6.57235336 C10.0133453,7.90723292 8.81992556,8.9937467 7.35370249,8.9937467 Z" id="Shape"></path>
            </g>
        </g>
    </g>
</svg>