<svg 
 xmlns="http://www.w3.org/2000/svg"
 xmlns:xlink="http://www.w3.org/1999/xlink"
 width="80px" height="67px">
<path fill-rule="evenodd"  fill="rgb(255, 158, 42)"
 d="M74.505,-0.000 C53.508,10.659 43.010,25.433 43.010,44.326 C43.010,50.625 44.983,55.978 48.934,60.385 C52.882,64.795 57.552,66.998 62.948,66.998 C67.763,66.998 71.760,65.304 74.940,61.911 C78.117,58.521 79.706,54.354 79.706,49.413 C79.706,44.762 78.067,40.670 74.795,37.132 C71.518,33.597 67.376,31.537 62.370,30.955 C62.370,23.108 68.243,16.277 79.996,10.464 L74.505,-0.000 ZM31.348,-0.000 C10.447,10.659 -0.002,25.433 -0.002,44.326 C-0.002,50.625 1.948,55.978 5.848,60.385 C9.749,64.795 14.394,66.998 19.790,66.998 C24.605,66.998 28.624,65.304 31.853,61.911 C35.078,58.521 36.692,54.354 36.692,49.413 C36.692,44.762 35.053,40.670 31.780,37.132 C28.505,33.597 24.315,31.537 19.211,30.955 C19.211,23.108 25.135,16.277 36.981,10.464 L31.348,-0.000 Z"/>
</svg>