<?xml version="1.0" encoding="utf-8"?>
<!-- Generator: Adobe Illustrator 17.0.0, SVG Export Plug-In . SVG Version: 6.00 Build 0)  -->
<!DOCTYPE svg PUBLIC "-//W3C//DTD SVG 1.1//EN" "http://www.w3.org/Graphics/SVG/1.1/DTD/svg11.dtd">
<svg version="1.1" id="Layer_1" xmlns="http://www.w3.org/2000/svg" xmlns:xlink="http://www.w3.org/1999/xlink" x="0px" y="0px"
	 width="855.601px" height="757.703px" viewBox="532.2 161.148 855.601 757.703"
	 enable-background="new 532.2 161.148 855.601 757.703" xml:space="preserve">
<path fill="#FFFFFF" d="M1051.705,672.637c0,0,41.472,37.152-0.864,81.216c0,0,26.784,44.928-20.736,80.352
	c0,0,21.6,61.344-65.664,80.352c-25.92,5.184-58.752,5.184-88.992,2.592c-76.896,1.728-152.928-8.64-152.928-8.64l-49.248-215.136
	c14.688-9.504,22.464-19.872,25.056-25.92c0.864-1.728,1.728-4.32,2.592-6.912l0,0c4.32-10.368,11.232-22.464,21.6-33.696
	c49.248-38.016,101.088-180.576,101.088-180.576s-7.776-51.84,16.416-51.84c24.192,0,81.216,16.416,47.52,120.96
	c-34.56,104.544,0,88.128,0,88.128c7.776-1.728,15.552-3.456,22.464-4.32l0,0c0,0,99.36-22.464,136.512,11.232
	C1074.169,637.213,1051.705,672.637,1051.705,672.637z M649.081,714.109l37.152,177.984c1.728,10.368-4.32,18.144-14.688,18.144
	H548.857c-10.368,0-18.144-8.64-16.416-19.008l20.736-177.12c0.864-10.368,10.368-19.008,20.736-19.008h52.704
	C636.985,695.965,647.353,704.605,649.081,714.109z M638.713,854.941c-10.368,0-18.144,7.776-18.144,18.144
	c0,10.368,7.776,18.144,18.144,18.144c10.368,0,18.144-7.776,18.144-18.144C656.857,863.581,649.081,854.941,638.713,854.941z
	 M1387.801,322.717c0,88.992-72.576,161.568-161.568,161.568h-108.864l-74.304,74.304c-5.184,5.184-13.824,1.728-13.824-6.048
	v-76.896c-63.936-21.6-110.592-82.08-110.592-152.928c0-88.992,72.576-161.568,161.568-161.568h146.88
	C1316.089,161.149,1387.801,233.725,1387.801,322.717z M1224.505,291.613l-26.784-27.648l-62.208,62.208l-25.92-25.92
	l-27.648,26.784l25.92,25.92l26.784,27.648l27.648-26.784L1224.505,291.613z"/>
</svg>
