<?xml version="1.0" encoding="utf-8"?>
<!-- Generator: Adobe Illustrator 17.0.0, SVG Export Plug-In . SVG Version: 6.00 Build 0)  -->
<!DOCTYPE svg PUBLIC "-//W3C//DTD SVG 1.1//EN" "http://www.w3.org/Graphics/SVG/1.1/DTD/svg11.dtd">
<svg version="1.1" id="Capa_1" xmlns="http://www.w3.org/2000/svg" xmlns:xlink="http://www.w3.org/1999/xlink" x="0px" y="0px"
	 width="39.976px" height="40px" viewBox="940.012 520 39.976 40" enable-background="new 940.012 520 39.976 40"
	 xml:space="preserve">
<g>
	<g>
		<g>
			<path fill="#ffffff" d="M978.96,554.011l-15.685-15.685l-18.325-18.325h-1.432l-0.292,0.743
				c-0.772,1.961-1.102,3.967-0.954,5.801c0.169,2.09,0.963,3.899,2.296,5.233l14.305,14.305l1.887-1.887l13.225,14.788
				c1.316,1.316,3.58,1.394,4.974,0C980.331,557.613,980.331,555.382,978.96,554.011z"/>
		</g>
	</g>
	<g>
		<g>
			<path fill="#ffffff" d="M952.245,542.77l-11.204,11.204c-1.371,1.371-1.371,3.603,0,4.974c1.303,1.303,3.556,1.418,4.974,0
				l11.204-11.204L952.245,542.77z"/>
		</g>
	</g>
	<g>
		<g>
			<path fill="#ffffff" d="M978.302,526.661l-6.356,6.355l-1.658-1.658l6.356-6.356l-1.658-1.658l-6.355,6.355l-1.658-1.658
				l6.356-6.355l-1.658-1.658l-8.29,8.29c-1.014,1.014-1.62,2.361-1.705,3.792c-0.022,0.363-0.104,0.719-0.24,1.058l5.385,5.385
				c0.339-0.136,0.696-0.219,1.058-0.24c1.431-0.085,2.778-0.691,3.792-1.705l8.29-8.29L978.302,526.661z"/>
		</g>
	</g>
</g>
</svg>
