<?xml version="1.0" encoding="utf-8"?>
<!-- Generator: Adobe Illustrator 17.0.0, SVG Export Plug-In . SVG Version: 6.00 Build 0)  -->
<!DOCTYPE svg PUBLIC "-//W3C//DTD SVG 1.1//EN" "http://www.w3.org/Graphics/SVG/1.1/DTD/svg11.dtd">
<svg version="1.1" id="Capa_1" xmlns="http://www.w3.org/2000/svg" xmlns:xlink="http://www.w3.org/1999/xlink" x="0px" y="0px"
	 width="52.001px" height="40px" viewBox="201.708 207.708 52.001 40" enable-background="new 201.708 207.708 52.001 40"
	 xml:space="preserve">
<g>
	<g>
		<path fill="#ffffff" d="M228.651,207.708c0.045,1.106,0.089,2.212,0.133,3.319c-0.861,0-1.292,0-2.153,0
			c0.044-1.106,0.089-2.212,0.133-3.319c-1.746,0-3.493,0-5.239,0c-3.511,13.333-7.022,26.666-10.533,40c4.722,0,9.443,0,14.165,0
			c0.044-1.106,0.089-2.213,0.133-3.319c1.611,0,3.223,0,4.834,0c0.045,1.106,0.089,2.212,0.133,3.319c4.722,0,9.443,0,14.165,0
			c-3.511-13.333-7.022-26.667-10.533-40C232.144,207.708,230.398,207.708,228.651,207.708z M226.432,215.996
			c0.851,0,1.702,0,2.552,0c0.124,3.076,0.247,6.152,0.371,9.228c-1.098,0-2.196,0-3.294,0
			C226.185,222.148,226.308,219.072,226.432,215.996z M225.491,239.42c0.123-3.076,0.247-6.152,0.371-9.228c1.231,0,2.462,0,3.693,0
			c0.124,3.076,0.247,6.152,0.371,9.228C228.447,239.42,226.969,239.42,225.491,239.42z"/>
		<path fill="#ffffff" d="M237.325,207.708c-0.713,0-1.07,0-1.784,0c4.449,13.333,8.896,26.667,13.345,40c1.607,0,3.215,0,4.822,0
			C248.248,234.374,242.786,221.041,237.325,207.708z"/>
		<path fill="#ffffff" d="M218.091,207.708c-5.461,13.333-10.923,26.666-16.384,40c1.607,0,3.215,0,4.822,0
			c4.448-13.333,8.897-26.667,13.345-40C219.162,207.708,218.805,207.708,218.091,207.708z"/>
	</g>
</g>
</svg>
