<?xml version="1.0" encoding="utf-8"?>
<!-- Generator: Adobe Illustrator 17.0.0, SVG Export Plug-In . SVG Version: 6.00 Build 0)  -->
<!DOCTYPE svg PUBLIC "-//W3C//DTD SVG 1.1//EN" "http://www.w3.org/Graphics/SVG/1.1/DTD/svg11.dtd">
<svg version="1.1" id="Layer_1" xmlns="http://www.w3.org/2000/svg" xmlns:xlink="http://www.w3.org/1999/xlink" x="0px" y="0px"
	 width="25px" height="25px" viewBox="0 0 25 25" enable-background="new 0 0 25 25" xml:space="preserve">
<path fill="#003366" d="M10.005,19.978c2.3-0.01,4.525-0.823,6.289-2.298c0.027,0.049,0.057,0.095,0.092,0.138l6.861,6.861
	c0.191,0.186,0.447,0.289,0.714,0.288s0.521-0.108,0.71-0.297c0.188-0.188,0.295-0.443,0.297-0.71
	c0.002-0.266-0.102-0.523-0.288-0.714l-6.862-6.861c-0.043-0.034-0.089-0.065-0.138-0.092c1.475-1.765,2.287-3.989,2.297-6.289
	c0-1.972-0.585-3.9-1.681-5.54c-1.096-1.64-2.653-2.918-4.476-3.673C11.999,0.037,9.994-0.16,8.059,0.225
	C6.125,0.609,4.348,1.559,2.953,2.954C1.559,4.349,0.609,6.126,0.224,8.06C-0.161,9.995,0.037,12,0.792,13.822
	c0.755,1.822,2.033,3.38,3.673,4.476C6.105,19.393,8.033,19.978,10.005,19.978z M10.005,2.059c1.572,0,3.108,0.466,4.415,1.339
	c1.307,0.873,2.325,2.114,2.927,3.566c0.601,1.452,0.759,3.05,0.452,4.591c-0.307,1.541-1.063,2.957-2.175,4.069
	s-2.527,1.868-4.069,2.175c-1.541,0.307-3.139,0.149-4.591-0.452c-1.452-0.601-2.693-1.62-3.566-2.927
	c-0.873-1.307-1.339-2.843-1.339-4.415c0-2.107,0.837-4.129,2.327-5.619C5.876,2.896,7.897,2.059,10.005,2.059z"/>
</svg>
