<?xml version="1.0" encoding="utf-8"?>
<!-- Generator: Adobe Illustrator 17.0.0, SVG Export Plug-In . SVG Version: 6.00 Build 0)  -->
<!DOCTYPE svg PUBLIC "-//W3C//DTD SVG 1.1//EN" "http://www.w3.org/Graphics/SVG/1.1/DTD/svg11.dtd">
<svg version="1.1" id="Layer_1" xmlns="http://www.w3.org/2000/svg" xmlns:xlink="http://www.w3.org/1999/xlink" x="0px" y="0px"
	 width="30px" height="30px" viewBox="945 525 30 30" enable-background="new 945 525 30 30" xml:space="preserve">
<g>
	<path fill="#ffffff" d="M974.293,553.554c-0.604,0.748-1.514,1.182-2.475,1.182h-23.637c-0.961,0-1.871-0.435-2.475-1.182
		c-0.604-0.748-0.837-1.728-0.636-2.668c1.033-4.802,4.323-8.698,8.6-10.666c1.739,1.386,3.937,2.221,6.329,2.221
		c2.397,0,4.599-0.837,6.339-2.229c3.383,1.545,6.161,4.305,7.693,7.868c0.388,0.901,0.69,1.846,0.896,2.806
		C975.131,551.826,974.897,552.807,974.293,553.554z M960,525.264c-3.865,0-6.998,3.133-6.998,6.998s3.133,6.998,6.998,6.998
		c3.866,0,6.998-3.133,6.998-6.998S963.866,525.264,960,525.264"/>
</g>
</svg>
