<?xml version="1.0" encoding="utf-8"?>
<!-- Generator: Adobe Illustrator 17.0.0, SVG Export Plug-In . SVG Version: 6.00 Build 0)  -->
<!DOCTYPE svg PUBLIC "-//W3C//DTD SVG 1.1//EN" "http://www.w3.org/Graphics/SVG/1.1/DTD/svg11.dtd">
<svg version="1.1" id="Layer_1" xmlns="http://www.w3.org/2000/svg" xmlns:xlink="http://www.w3.org/1999/xlink" x="0px" y="0px"
	 width="25px" height="23.628px" viewBox="0 0.686 25 23.628" enable-background="new 0 0.686 25 23.628" xml:space="preserve">
<path fill="#FFFFFF" d="M0.733,24.314h23.534c0.405,0,0.734-0.328,0.734-0.733c0-5.173-5.937-7.535-8.567-8.326
	c1.562-1.807,2.553-4.501,2.553-6.968c0-4.191-2.929-7.601-6.531-7.601c-3.602,0-6.532,3.41-6.532,7.601
	c0,2.476,1,5.182,2.573,6.989C5.831,16.089,0,18.454,0,23.581C0,23.986,0.328,24.314,0.733,24.314z M12.455,2.151
	c2.794,0,5.067,2.752,5.067,6.136c0,3.422-2.338,7.601-5.067,7.601c-2.729,0-5.067-4.179-5.067-7.601
	C7.388,4.904,9.66,2.151,12.455,2.151z M9.77,16.443c0.815,0.57,1.72,0.911,2.684,0.911c0.973,0,1.886-0.348,2.707-0.927
	c1.337,0.336,7.656,2.148,8.315,6.423H1.521C2.17,18.641,8.303,16.82,9.77,16.443z"/>
</svg>
