<?xml version="1.0" encoding="utf-8"?>
<!-- Generator: Adobe Illustrator 17.0.0, SVG Export Plug-In . SVG Version: 6.00 Build 0)  -->
<!DOCTYPE svg PUBLIC "-//W3C//DTD SVG 1.1//EN" "http://www.w3.org/Graphics/SVG/1.1/DTD/svg11.dtd">
<svg version="1.1"
	 id="Layer_1" xmlns:dc="http://purl.org/dc/elements/1.1/" xmlns:cc="http://creativecommons.org/ns#" xmlns:rdf="http://www.w3.org/1999/02/22-rdf-syntax-ns#" xmlns:svg="http://www.w3.org/2000/svg" xmlns:sodipodi="http://sodipodi.sourceforge.net/DTD/sodipodi-0.dtd" xmlns:inkscape="http://www.inkscape.org/namespaces/inkscape"
	 xmlns="http://www.w3.org/2000/svg" xmlns:xlink="http://www.w3.org/1999/xlink" x="0px" y="0px" width="30px" height="30px"
	 viewBox="945 525 30 30" enable-background="new 945 525 30 30" xml:space="preserve">
<g transform="translate(0,-952.36218)">
	<path fill="#c0c5c8" d="M948.571,1479.505v20.714c4.569-0.025,7.974,2.468,10.714,4.754v-21.183
		C956.253,1481.249,952.844,1479.501,948.571,1479.505z M971.429,1479.505c-4.273-0.004-7.682,1.744-10.714,4.286v21.183
		c2.741-2.287,6.145-4.779,10.714-4.754V1479.505z M945,1482.362v20.714l12.5,2.143c-2.376-1.791-5.372-3.591-8.929-3.571h-0.714
		c-0.374,0-0.714-0.34-0.714-0.714v-0.714v-17.556L945,1482.362z M975,1482.362l-2.143,0.301v17.556v0.714
		c0,0.374-0.34,0.714-0.714,0.714h-0.714c-3.556-0.019-6.553,1.78-8.929,3.571l12.5-2.143V1482.362z"/>
</g>
</svg>
