<?xml version="1.0" encoding="utf-8"?>
<!-- Generator: Adobe Illustrator 17.0.0, SVG Export Plug-In . SVG Version: 6.00 Build 0)  -->
<!DOCTYPE svg PUBLIC "-//W3C//DTD SVG 1.1//EN" "http://www.w3.org/Graphics/SVG/1.1/DTD/svg11.dtd">
<svg version="1.1" id="Layer_1" xmlns="http://www.w3.org/2000/svg" xmlns:xlink="http://www.w3.org/1999/xlink" x="0px" y="0px"
	 width="30px" height="30px" viewBox="945 525 30 30" enable-background="new 945 525 30 30" xml:space="preserve">
<path fill="#003366" d="M956.667,540v-1.667h6.667V540H975v-6.667c0-0.92-0.746-1.667-1.667-1.667H965v-3.333c0-0.92-0.746-1.667-1.667-1.667
	h-6.667c-0.92,0-1.667,0.746-1.667,1.667v3.333h-8.333c-0.92,0-1.667,0.746-1.667,1.667V540H956.667z M956.667,528.333h6.667v3.333
	h-6.667V528.333z M975,542.5v9.167c0,0.92-0.746,1.667-1.667,1.667h-26.667c-0.92,0-1.667-0.746-1.667-1.667V542.5h11.667v1.667
	h6.667V542.5H975z"/>
</svg>
